<?xml version="1.0" encoding="UTF-8"?>
<svg xmlns="http://www.w3.org/2000/svg" xmlns:xlink="http://www.w3.org/1999/xlink" width="15px" height="15px" viewBox="0 0 15 15" version="1.1">
<g id="surface1">
<path style=" stroke:none;fill-rule:evenodd;fill:rgb(89.019608%,89.019608%,89.019608%);fill-opacity:1;" d="M 4.773438 4.1875 L 4.773438 4.859375 L 6.496094 4.871094 C 8.21875 4.878906 8.21875 4.878906 8.386719 4.945312 C 8.742188 5.089844 8.957031 5.429688 8.925781 5.792969 C 8.894531 6.136719 8.808594 6.25 7.9375 7.109375 L 7.164062 7.878906 L 7.738281 7.878906 C 8.390625 7.882812 8.554688 7.902344 8.808594 8.027344 C 9.574219 8.402344 9.601562 9.5625 8.855469 9.96875 C 8.570312 10.125 8.457031 10.136719 7.332031 10.136719 L 6.296875 10.136719 L 6.296875 7.691406 C 6.296875 6.34375 6.292969 5.242188 6.285156 5.242188 C 6.277344 5.242188 5.933594 5.496094 5.523438 5.800781 L 4.773438 6.355469 L 4.773438 11.488281 L 6.804688 11.476562 C 8.765625 11.46875 8.839844 11.464844 9.066406 11.40625 C 9.546875 11.277344 9.921875 11.078125 10.230469 10.789062 C 10.652344 10.386719 10.890625 9.878906 10.917969 9.289062 C 10.964844 8.429688 10.597656 7.695312 9.902344 7.25 C 9.78125 7.171875 9.675781 7.105469 9.671875 7.101562 C 9.664062 7.09375 9.777344 6.96875 9.921875 6.820312 C 10.3125 6.410156 10.460938 6.042969 10.457031 5.488281 C 10.457031 4.574219 9.929688 3.910156 8.972656 3.613281 L 8.714844 3.53125 L 6.746094 3.523438 L 4.773438 3.511719 L 4.773438 4.1875 "/>
<path style=" stroke:none;fill-rule:evenodd;fill:rgb(98.431373%,1.568627%,10.980392%);fill-opacity:1;" d="M 0 12.789062 L 0 15 L 5.390625 15 C 9.09375 15 10.78125 14.992188 10.78125 14.96875 C 10.78125 14.90625 10.578125 14.421875 10.4375 14.132812 C 9.90625 13.078125 9.078125 12.253906 7.984375 11.695312 L 7.660156 11.527344 L 6.210938 11.515625 L 4.761719 11.5 L 4.753906 11.242188 L 4.742188 10.984375 L 4.445312 10.988281 C 4.066406 10.988281 3.539062 11.03125 3.238281 11.089844 C 2.90625 11.15625 2.21875 11.175781 1.847656 11.132812 C 1.320312 11.074219 0.578125 10.855469 0.148438 10.636719 C 0.0859375 10.601562 0.0234375 10.578125 0.015625 10.578125 C 0.0078125 10.578125 0 11.570312 0 12.789062 "/>
<path style=" stroke:none;fill-rule:evenodd;fill:rgb(1.568627%,17.254902%,17.254902%);fill-opacity:1;" d="M 0 5.285156 L 0 10.566406 L 0.199219 10.65625 C 0.734375 10.90625 1.320312 11.074219 1.847656 11.132812 C 2.21875 11.175781 2.90625 11.15625 3.238281 11.089844 C 3.539062 11.03125 4.066406 10.988281 4.445312 10.988281 L 4.746094 10.984375 L 4.746094 6.363281 L 6.285156 5.222656 L 6.296875 7.671875 L 6.3125 10.121094 L 7.207031 10.128906 C 7.699219 10.136719 8.210938 10.125 8.347656 10.109375 C 8.792969 10.054688 9.121094 9.839844 9.28125 9.496094 C 9.351562 9.347656 9.359375 9.296875 9.359375 9.007812 C 9.359375 8.714844 9.351562 8.671875 9.277344 8.519531 C 9.171875 8.300781 8.992188 8.125 8.757812 8.015625 L 8.570312 7.925781 L 7.875 7.914062 C 7.492188 7.910156 7.179688 7.898438 7.179688 7.886719 C 7.179688 7.878906 7.523438 7.519531 7.949219 7.089844 C 8.84375 6.191406 8.90625 6.101562 8.90625 5.730469 C 8.90625 5.378906 8.738281 5.121094 8.410156 4.96875 C 8.28125 4.910156 8.226562 4.90625 6.519531 4.890625 L 4.761719 4.878906 L 4.753906 4.179688 L 4.746094 3.484375 L 6.6875 3.492188 C 8.582031 3.503906 8.632812 3.503906 8.875 3.570312 C 9.015625 3.605469 9.25 3.695312 9.402344 3.769531 C 9.625 3.878906 9.71875 3.945312 9.914062 4.140625 C 10.308594 4.535156 10.464844 4.917969 10.464844 5.484375 C 10.464844 6.089844 10.320312 6.4375 9.894531 6.878906 C 9.78125 6.996094 9.691406 7.09375 9.699219 7.097656 C 9.707031 7.105469 9.804688 7.171875 9.921875 7.246094 C 10.164062 7.40625 10.492188 7.742188 10.628906 7.976562 C 10.773438 8.214844 10.890625 8.585938 10.925781 8.898438 C 11.039062 9.957031 10.472656 10.882812 9.460938 11.289062 C 9.050781 11.449219 8.648438 11.515625 8.015625 11.515625 L 7.609375 11.515625 L 7.957031 11.683594 C 8.839844 12.121094 9.542969 12.730469 10.085938 13.535156 C 10.316406 13.878906 10.585938 14.410156 10.710938 14.765625 L 10.796875 15 L 14.992188 15 L 15.011719 11.65625 C 15.019531 9.816406 15.03125 6.441406 15.03125 4.15625 L 15.03125 0 L 0 0 L 0 5.285156 M 0.015625 5.304688 C 0.015625 8.210938 0.0195312 9.402344 0.0234375 7.945312 C 0.0273438 6.492188 0.0273438 4.113281 0.0234375 2.660156 C 0.0195312 1.203125 0.015625 2.394531 0.015625 5.304688 "/>
<path style=" stroke:none;fill-rule:evenodd;fill:rgb(45.490196%,54.901961%,51.764706%);fill-opacity:1;" d="M 4.757812 3.523438 C 4.75 3.542969 4.75 3.855469 4.753906 4.21875 L 4.761719 4.878906 L 4.769531 4.195312 L 4.773438 3.515625 L 8.335938 3.5 L 6.554688 3.492188 C 5.132812 3.488281 4.769531 3.492188 4.757812 3.523438 M 8.6875 5.15625 C 8.714844 5.1875 8.746094 5.214844 8.753906 5.214844 C 8.761719 5.214844 8.746094 5.1875 8.714844 5.15625 C 8.6875 5.125 8.65625 5.097656 8.648438 5.097656 C 8.640625 5.097656 8.65625 5.125 8.6875 5.15625 M 8.910156 5.613281 C 8.910156 5.648438 8.917969 5.652344 8.925781 5.628906 C 8.933594 5.609375 8.933594 5.585938 8.925781 5.574219 C 8.914062 5.566406 8.90625 5.582031 8.910156 5.613281 M 4.757812 6.363281 C 4.75 6.386719 4.75 7.4375 4.753906 8.703125 L 4.761719 11 L 4.773438 8.664062 C 4.785156 7.378906 4.785156 6.328125 4.78125 6.328125 C 4.777344 6.328125 4.765625 6.34375 4.757812 6.363281 M 8.40625 6.636719 C 8.335938 6.707031 8.285156 6.765625 8.292969 6.765625 C 8.300781 6.765625 8.367188 6.707031 8.4375 6.636719 C 8.507812 6.5625 8.558594 6.503906 8.550781 6.503906 C 8.542969 6.503906 8.480469 6.5625 8.40625 6.636719 M 9.828125 6.921875 L 9.652344 7.105469 L 9.835938 6.929688 C 10.007812 6.765625 10.03125 6.738281 10.011719 6.738281 C 10.007812 6.738281 9.925781 6.820312 9.828125 6.921875 M 9.378906 9.15625 C 9.378906 9.191406 9.386719 9.199219 9.394531 9.175781 C 9.402344 9.152344 9.402344 9.128906 9.394531 9.121094 C 9.382812 9.109375 9.375 9.125 9.378906 9.15625 M 10.28125 10.746094 L 10.210938 10.824219 L 10.289062 10.753906 C 10.335938 10.714844 10.371094 10.679688 10.371094 10.671875 C 10.371094 10.652344 10.347656 10.667969 10.28125 10.746094 M 7.769531 11.507812 C 7.878906 11.511719 8.0625 11.511719 8.179688 11.507812 C 8.296875 11.5 8.210938 11.496094 7.984375 11.496094 C 7.757812 11.496094 7.660156 11.5 7.769531 11.507812 "/>
<path style=" stroke:none;fill-rule:evenodd;fill:rgb(95.686275%,45.490196%,51.764706%);fill-opacity:1;" d="M 4.757812 11.234375 L 4.761719 11.5 L 7.574219 11.5 L 4.777344 11.484375 L 4.765625 11.226562 L 4.757812 10.972656 L 4.757812 11.234375 "/>
<path style=" stroke:none;fill-rule:evenodd;fill:rgb(39.215686%,48.627451%,48.627451%);fill-opacity:1;" d="M 8.34375 3.503906 C 8.363281 3.515625 8.394531 3.515625 8.414062 3.503906 C 8.4375 3.496094 8.417969 3.492188 8.378906 3.492188 C 8.339844 3.492188 8.320312 3.496094 8.34375 3.503906 M 5.589844 4.886719 C 6.042969 4.890625 6.789062 4.890625 7.242188 4.886719 C 7.699219 4.878906 7.328125 4.878906 6.414062 4.878906 C 5.503906 4.878906 5.132812 4.878906 5.589844 4.886719 M 10.460938 5.464844 C 10.460938 5.5 10.46875 5.507812 10.480469 5.484375 C 10.488281 5.460938 10.488281 5.4375 10.476562 5.429688 C 10.46875 5.417969 10.460938 5.433594 10.460938 5.464844 M 8.910156 5.726562 C 8.914062 5.777344 8.917969 5.792969 8.925781 5.761719 C 8.933594 5.734375 8.933594 5.695312 8.925781 5.675781 C 8.917969 5.65625 8.910156 5.679688 8.910156 5.726562 M 7.464844 7.902344 C 7.632812 7.90625 7.894531 7.90625 8.050781 7.902344 C 8.207031 7.898438 8.070312 7.894531 7.75 7.894531 C 7.425781 7.894531 7.300781 7.898438 7.464844 7.902344 M 9.382812 8.992188 C 9.382812 9.066406 9.390625 9.097656 9.394531 9.058594 C 9.402344 9.023438 9.402344 8.964844 9.394531 8.929688 C 9.390625 8.890625 9.382812 8.921875 9.382812 8.992188 M 10.933594 9.171875 C 10.933594 9.226562 10.941406 9.25 10.949219 9.222656 C 10.957031 9.191406 10.957031 9.148438 10.949219 9.117188 C 10.941406 9.089844 10.933594 9.113281 10.933594 9.171875 M 8.253906 10.125 C 8.273438 10.136719 8.308594 10.136719 8.328125 10.125 C 8.347656 10.117188 8.332031 10.113281 8.289062 10.113281 C 8.25 10.113281 8.234375 10.117188 8.253906 10.125 M 8.417969 11.503906 C 8.445312 11.511719 8.484375 11.511719 8.503906 11.503906 C 8.523438 11.496094 8.5 11.488281 8.453125 11.488281 C 8.402344 11.492188 8.386719 11.496094 8.417969 11.503906 "/>
</g>
</svg>
