<svg width="9" height="13" viewBox="0 0 9 13" fill="none" xmlns="http://www.w3.org/2000/svg">
<path d="M3.54762 12.816C3.55707 12.8238 3.56701 12.8305 3.57672 12.8377C3.58822 12.8463 3.59949 12.8553 3.61149 12.8633C3.62307 12.8711 3.6351 12.8778 3.64699 12.8849C3.65784 12.8913 3.66847 12.8981 3.67963 12.9041C3.69174 12.9106 3.70423 12.9161 3.71661 12.9219C3.72826 12.9275 3.73973 12.9333 3.75169 12.9382C3.76368 12.9432 3.77595 12.9472 3.78813 12.9516C3.80097 12.9562 3.81361 12.9611 3.82671 12.9651C3.8389 12.9688 3.85132 12.9715 3.86362 12.9745C3.87699 12.9779 3.8902 12.9817 3.9038 12.9844C3.91808 12.9872 3.93248 12.9889 3.94684 12.991C3.95868 12.9926 3.97034 12.9949 3.98237 12.9961C4.03569 13.0014 4.08943 13.0014 4.14275 12.9961C4.15475 12.9949 4.1664 12.9927 4.17829 12.991C4.19264 12.9889 4.20708 12.9872 4.22132 12.9844C4.23496 12.9817 4.24814 12.9779 4.2615 12.9745C4.27384 12.9715 4.28622 12.9688 4.29841 12.9651C4.31151 12.9611 4.3242 12.9562 4.33699 12.9516C4.34918 12.9472 4.36144 12.9432 4.37344 12.9382C4.3854 12.9333 4.39686 12.9275 4.40852 12.9219C4.4209 12.9161 4.43339 12.9106 4.4455 12.9041C4.45666 12.8981 4.46728 12.8913 4.47814 12.8849C4.49002 12.8778 4.50206 12.871 4.51363 12.8633C4.52563 12.8553 4.53691 12.8463 4.54841 12.8377C4.55812 12.8305 4.56806 12.8237 4.57751 12.816C4.59788 12.7993 4.61749 12.7816 4.63616 12.763C4.63646 12.7627 4.63677 12.7624 4.63703 12.7622L7.88703 9.51214C8.20432 9.19484 8.20432 8.68037 7.88703 8.36307C7.56973 8.04577 7.05527 8.04577 6.73797 8.36307L4.87499 10.2261L4.87499 0.812499C4.87499 0.363764 4.51124 -1.57963e-07 4.06251 -1.77577e-07C3.61378 -1.97192e-07 3.25002 0.363764 3.25002 0.812499L3.25002 10.2261L1.38704 8.36307C1.06974 8.04577 0.555278 8.04577 0.237983 8.36307C-0.0793118 8.68037 -0.0793118 9.19484 0.237983 9.51214L3.48798 12.7622C3.48828 12.7625 3.48859 12.7627 3.48885 12.763C3.50763 12.7816 3.52724 12.7993 3.54762 12.816Z" fill="#8694A1"/>
</svg>
