<?xml version="1.0" encoding="utf-8"?>
<svg viewBox="0 0 66 66" fill="none" xmlns="http://www.w3.org/2000/svg">
  <defs>
    <linearGradient id="ln1" x1="20" y1="33" x2="46" y2="33" gradientUnits="userSpaceOnUse">
      <stop stop-color="#E52167"/>
      <stop offset="1" stop-color="#E216A9"/>
    </linearGradient>
    <linearGradient id="ln2" x1="4.91738e-07" y1="33" x2="66" y2="33" gradientUnits="userSpaceOnUse">
      <stop stop-color="#E52167"/>
      <stop offset="1" stop-color="#E216A9"/>
    </linearGradient>
  </defs>
  <path d="M20 20L46 46M46 20L20 46" stroke-width="5" stroke-linecap="round" style=""/>
  <path d="M 18.232 18.232 C 19.209 17.256 20.791 17.256 21.768 18.232 L 33 29.464 L 44.232 18.232 C 45.209 17.256 46.791 17.256 47.768 18.232 C 48.744 19.209 48.744 20.791 47.768 21.768 L 36.536 33 L 47.768 44.232 C 48.744 45.209 48.744 46.791 47.768 47.768 C 46.791 48.744 45.209 48.744 44.232 47.768 L 33 36.536 L 21.768 47.768 C 20.791 48.744 19.209 48.744 18.232 47.768 C 17.256 46.791 17.256 45.209 18.232 44.232 L 29.464 33 L 18.232 21.768 C 17.256 20.791 17.256 19.209 18.232 18.232 Z" style="fill: url(#ln1);"/>
  <path d="M33 0C14.8036 0 0 14.8036 0 33C0 51.1964 14.8036 66 33 66C51.1964 66 66 51.1964 66 33C66 14.8036 51.1964 0 33 0ZM33 60.6487C17.7549 60.6487 5.35128 48.2461 5.35128 33C5.35128 17.7549 17.7548 5.35128 33 5.35128C48.246 5.35128 60.6487 17.7548 60.6487 33C60.6487 48.246 48.246 60.6487 33 60.6487Z" fill="url(#ln2)"/>
</svg>