<svg width="23" height="18" viewBox="0 0 23 18" fill="none" xmlns="http://www.w3.org/2000/svg">
<path d="M19.4705 1.46952C18.0045 0.789345 16.4325 0.288219 14.7889 0.00120399C14.759 -0.00433531 14.7291 0.00950771 14.7137 0.0371944C14.5115 0.400807 14.2875 0.87517 14.1307 1.24802C12.3629 0.980387 10.6041 0.980387 8.87256 1.24802C8.7157 0.866882 8.48363 0.400807 8.28055 0.0371944C8.26513 0.0104315 8.23523 -0.00341155 8.2053 0.00120399C6.56258 0.287302 4.99058 0.788427 3.52373 1.46952C3.51103 1.47506 3.50015 1.4843 3.49292 1.49629C0.511167 6.00091 -0.305661 10.3948 0.0950476 14.7342C0.0968607 14.7555 0.108646 14.7758 0.124965 14.7887C2.09224 16.2496 3.99789 17.1365 5.86814 17.7244C5.89808 17.7336 5.92979 17.7226 5.94884 17.6976C6.39125 17.0867 6.78562 16.4425 7.12375 15.7651C7.1437 15.7254 7.12466 15.6784 7.08387 15.6627C6.45834 15.4227 5.8627 15.1302 5.28974 14.7979C5.24442 14.7712 5.24079 14.7056 5.28249 14.6742C5.40306 14.5829 5.52366 14.4878 5.63879 14.3918C5.65962 14.3743 5.68865 14.3706 5.71314 14.3817C9.47723 16.1195 13.5523 16.1195 17.272 14.3817C17.2965 14.3697 17.3255 14.3734 17.3472 14.3909C17.4624 14.4869 17.583 14.5829 17.7045 14.6742C17.7462 14.7056 17.7434 14.7712 17.6981 14.7979C17.1252 15.1366 16.5295 15.4227 15.9031 15.6617C15.8623 15.6774 15.8442 15.7254 15.8641 15.7651C16.2095 16.4416 16.6039 17.0857 17.0381 17.6967C17.0562 17.7226 17.0889 17.7336 17.1188 17.7244C18.9981 17.1365 20.9038 16.2496 22.871 14.7887C22.8883 14.7758 22.8992 14.7564 22.901 14.7352C23.3805 9.71831 22.0977 5.36043 19.5004 1.4972C19.494 1.4843 19.4832 1.47506 19.4705 1.46952ZM7.68586 12.092C6.5526 12.092 5.61884 11.0399 5.61884 9.74785C5.61884 8.4558 6.53449 7.40372 7.68586 7.40372C8.84625 7.40372 9.77098 8.46503 9.75284 9.74785C9.75284 11.0399 8.83718 12.092 7.68586 12.092ZM15.3283 12.092C14.1951 12.092 13.2613 11.0399 13.2613 9.74785C13.2613 8.4558 14.1769 7.40372 15.3283 7.40372C16.4887 7.40372 17.4134 8.46503 17.3953 9.74785C17.3953 11.0399 16.4887 12.092 15.3283 12.092Z" fill="#3C5368"/>
</svg>
