<svg width="42" height="19" viewBox="0 0 42 19" fill="none" xmlns="http://www.w3.org/2000/svg">
<path d="M6.73971 18.6752L1.2929 16.5466C1.15973 16.4946 1.02033 16.4344 0.874706 16.3662C0.725828 16.2967 0.587122 16.2105 0.458588 16.1075C0.328064 16 0.22249 15.8665 0.141867 15.7069C0.0473192 15.5155 3.02234e-05 15.3275 2.77342e-08 15.1429C-3.05926e-05 14.9583 0.025293 14.7855 0.075971 14.6245C0.127908 14.4602 0.179682 14.3109 0.231292 14.1766L0.488085 13.5085L1.32606 13.836L1.08814 14.455C0.994994 14.6973 0.985219 14.9026 1.05882 15.0707C1.13043 15.2343 1.27504 15.3587 1.49265 15.4437L7.13434 17.6485L6.73971 18.6752ZM1.95853 17.8182L1.14005 17.4983L2.38814 14.2511L3.20662 14.5709L1.95853 17.8182Z" fill="#456078"/>
<path d="M9.28025 14.1239C8.93554 14.57 8.53642 14.8865 8.08287 15.0734C7.62872 15.2553 7.15575 15.3045 6.66395 15.2209C6.17155 15.1323 5.69592 14.9078 5.23706 14.5472C4.75072 14.1651 4.39961 13.7423 4.18372 13.2788C3.96998 12.8125 3.89296 12.3378 3.95266 11.8548C4.01236 11.3718 4.21135 10.9115 4.54964 10.4737C4.90291 10.0165 5.30951 9.71039 5.76944 9.55524C6.22663 9.39793 6.70995 9.39251 7.21941 9.539C7.73101 9.68271 8.24049 9.98061 8.74784 10.4327L8.07662 11.3013L7.76339 11.0552C7.24255 10.6548 6.78354 10.4545 6.38638 10.4541C5.99136 10.451 5.64183 10.6461 5.3378 11.0396C5.00166 11.4745 4.88503 11.9083 4.9879 12.341C5.09078 12.7736 5.39912 13.1917 5.91293 13.5955C6.40202 13.9798 6.86577 14.1683 7.30418 14.161C7.73985 14.1515 8.11719 13.9403 8.4362 13.5275C8.64603 13.256 8.76649 12.9744 8.79761 12.6827C8.82812 12.386 8.77217 12.0927 8.62976 11.8027L9.55603 11.1612C9.81955 11.6488 9.92419 12.1563 9.86995 12.6837C9.81296 13.2089 9.6164 13.6889 9.28025 14.1239ZM5.93771 14.0691L5.26591 13.5413L7.74203 10.3371L8.41384 10.8649L5.93771 14.0691Z" fill="#456078"/>
<path d="M13.3069 10.3667C12.8307 10.6653 12.3477 10.8234 11.8581 10.8409C11.3696 10.8535 10.9088 10.735 10.4759 10.4853C10.0441 10.2307 9.67464 9.85437 9.36747 9.35623C9.0419 8.82827 8.85717 8.3092 8.81329 7.79902C8.77236 7.28698 8.86261 6.81471 9.08403 6.38222C9.30545 5.94972 9.64985 5.58695 10.1172 5.2939C10.6053 4.98786 11.0917 4.84211 11.5765 4.85664C12.0595 4.86818 12.5149 5.03138 12.9429 5.34624C13.3738 5.65925 13.7499 6.11621 14.0713 6.71714L13.1439 7.2986L12.9342 6.95856C12.5825 6.4015 12.2203 6.05365 11.8477 5.91503C11.4781 5.77455 11.0832 5.836 10.6632 6.09938C10.1987 6.39057 9.94072 6.75708 9.88913 7.19891C9.83754 7.64073 9.98372 8.14054 10.3277 8.69833C10.6551 9.22928 11.0258 9.56765 11.4397 9.71344C11.8518 9.85625 12.2783 9.78948 12.719 9.51312C13.0089 9.33135 13.2184 9.109 13.3475 8.84607C13.4777 8.5783 13.5257 8.28354 13.4913 7.96177L14.5803 7.68226C14.6606 8.23162 14.585 8.74432 14.3536 9.22035C14.1202 9.69341 13.7714 10.0755 13.3069 10.3667ZM10.1887 9.1515L9.73901 8.4222L13.1601 6.27718L13.6098 7.00648L10.1887 9.1515Z" fill="#456078"/>
<path d="M18.1374 8.29629C17.6221 8.40249 17.1505 8.36522 16.7228 8.18449C16.2985 8.00305 15.939 7.71147 15.6442 7.30974C15.3522 6.90386 15.1497 6.42218 15.0367 5.86468C14.923 5.30375 14.9239 4.78193 15.0394 4.29924C15.1542 3.81311 15.3735 3.40403 15.6973 3.07201C16.0238 2.73584 16.4464 2.5143 16.9652 2.4074C17.4873 2.29979 17.952 2.33846 18.3593 2.52341C18.7692 2.70422 19.1096 2.99795 19.3805 3.40461C19.6548 3.81056 19.8484 4.29228 19.9614 4.84978C20.0744 5.40727 20.0837 5.92698 19.9894 6.40889C19.8951 6.8908 19.6953 7.29945 19.3899 7.63484C19.0839 7.96679 18.6664 8.18727 18.1374 8.29629ZM18.0881 7.29008C18.4396 7.21763 18.7092 7.07424 18.8969 6.8599C19.0845 6.64556 19.1996 6.37986 19.242 6.06281C19.2844 5.74575 19.2665 5.39451 19.1884 5.00908C19.1103 4.62365 18.9883 4.29386 18.8225 4.01971C18.6602 3.74486 18.453 3.54734 18.2011 3.42717C17.9526 3.3063 17.6612 3.28033 17.3267 3.34925C16.9718 3.4224 16.6978 3.57029 16.5047 3.79292C16.3116 4.01555 16.1887 4.28645 16.1361 4.60561C16.0869 4.92407 16.0992 5.26569 16.1732 5.63047C16.2478 5.99869 16.3701 6.32125 16.54 6.59814C16.7126 6.87088 16.9276 7.07215 17.185 7.20194C17.4458 7.33103 17.7468 7.36041 18.0881 7.29008ZM19.7544 7.80172L18.9415 3.79085L18.8186 3.81617L18.1249 0.393771L19.2 0.172222L20.7066 7.60549L19.7544 7.80172Z" fill="#456078"/>
<path d="M24.0136 8.06922C23.4804 7.98372 23.0537 7.78192 22.7335 7.46383C22.4139 7.14228 22.1965 6.74286 22.0813 6.26559C21.9661 5.78831 21.9528 5.2687 22.0414 4.70674C22.13 4.14478 22.3008 3.65468 22.5537 3.23643C22.81 2.81874 23.1373 2.51022 23.5356 2.3109C23.9378 2.10865 24.4021 2.04973 24.9285 2.13414C25.4514 2.21798 25.8815 2.42033 26.2189 2.74118C26.5603 3.05911 26.7989 3.45836 26.9347 3.93895C27.0711 4.41606 27.0947 4.93733 27.0055 5.50276C26.9169 6.06472 26.7338 6.55462 26.4563 6.97248C26.1827 7.38742 25.8363 7.69463 25.4168 7.89412C25.0008 8.09415 24.5331 8.15252 24.0136 8.06922ZM21.4169 7.49277L22.5985 0L23.6822 0.173767L23.1381 3.62356L23.0143 3.60371L22.3767 7.64668L21.4169 7.49277ZM24.0191 7.0618C24.3631 7.11696 24.6608 7.07402 24.9124 6.93296C25.1673 6.79246 25.3733 6.58187 25.5305 6.3012C25.6916 6.01761 25.8014 5.69023 25.86 5.31906C25.9179 4.95136 25.9137 4.60925 25.8472 4.29272C25.7842 3.97674 25.6514 3.71182 25.4488 3.49795C25.2462 3.28407 24.966 3.14845 24.6082 3.09108C24.2711 3.03702 23.9793 3.07559 23.7329 3.20679C23.4899 3.33855 23.2916 3.54503 23.1379 3.82626C22.9876 4.10803 22.8819 4.44317 22.8206 4.83169C22.7593 5.2202 22.7568 5.57189 22.8129 5.88677C22.8691 6.20164 22.9956 6.46199 23.1924 6.66782C23.3892 6.87366 23.6647 7.00498 24.0191 7.0618Z" fill="#456078"/>
<path d="M28.4234 9.4251C28.055 9.2259 27.7827 8.99097 27.6065 8.72031C27.4319 8.44656 27.3402 8.16184 27.3315 7.86615C27.3274 7.56903 27.3979 7.28426 27.5427 7.01186C27.6777 6.75804 27.8408 6.55923 28.0318 6.41545C28.2229 6.27167 28.4414 6.18054 28.6871 6.14206C28.9345 6.10047 29.2079 6.10678 29.5071 6.16099C29.7627 6.2155 30.0434 6.29352 30.349 6.39505C30.6547 6.49658 30.9726 6.60868 31.3026 6.73134C31.6357 6.85566 31.9657 6.97832 32.2927 7.09933L31.839 7.1051C32.0542 6.7153 32.1261 6.37951 32.0546 6.09772C31.9878 5.81451 31.7472 5.56085 31.3328 5.33675C31.0719 5.19565 30.7995 5.12808 30.5157 5.13404C30.2336 5.13691 29.9746 5.25594 29.7388 5.49115L28.9891 4.72702C29.3407 4.36315 29.7559 4.14726 30.2347 4.07935C30.7166 4.0131 31.2446 4.13518 31.8186 4.4456C32.2637 4.68629 32.6094 4.97284 32.8555 5.30523C33.1064 5.63618 33.2205 6.00877 33.1979 6.42298C33.1904 6.6302 33.1473 6.83011 33.0686 7.0227C32.9899 7.21529 32.8946 7.41683 32.7827 7.62732L31.1406 10.715L30.2887 10.2544L30.8986 9.10753L30.9854 9.34575C30.5756 9.61837 30.1608 9.76277 29.7411 9.77896C29.3262 9.79371 28.8869 9.67575 28.4234 9.4251ZM29.016 8.72324C29.2892 8.87098 29.5496 8.94999 29.7971 8.96027C30.0462 8.96745 30.271 8.92757 30.4714 8.84064C30.6718 8.7537 30.834 8.63816 30.9581 8.49402C31.0893 8.37366 31.2073 8.22227 31.3123 8.03986C31.4202 7.85912 31.5039 7.71302 31.5631 7.60159L31.8145 7.88699C31.4859 7.76908 31.1874 7.66147 30.919 7.56416C30.6506 7.46684 30.4052 7.38198 30.1828 7.30957C29.9652 7.23572 29.7649 7.18123 29.582 7.1461C29.4253 7.12115 29.2775 7.11296 29.1386 7.12152C29.0027 7.13175 28.8794 7.16669 28.7686 7.22636C28.6609 7.28768 28.5716 7.3849 28.5008 7.518C28.4317 7.64801 28.3997 7.78616 28.4049 7.93246C28.4118 8.07566 28.4639 8.21545 28.5613 8.35184C28.6588 8.48822 28.8103 8.61202 29.016 8.72324Z" fill="#456078"/>
<path d="M32.9435 12.7699C32.5433 12.3491 32.2964 11.9016 32.2028 11.4276C32.1092 10.9537 32.1499 10.4813 32.3248 10.0105C32.5021 9.54224 32.7957 9.10752 33.2056 8.70631C33.6279 8.30288 34.0759 8.02545 34.5496 7.87402C35.0259 7.72015 35.4968 7.70281 35.9624 7.82199C36.428 7.94116 36.8585 8.20865 37.2538 8.62445C37.6806 9.07321 37.934 9.563 38.014 10.0938C38.0965 10.6272 37.9937 11.1306 37.7054 11.6039L36.7269 11.0317C36.881 10.7319 36.9353 10.4312 36.8899 10.1296C36.8493 9.82818 36.7194 9.5621 36.5 9.33138C36.2517 9.07024 35.9864 8.91556 35.7041 8.86734C35.4243 8.81669 35.1402 8.8529 34.8519 8.97597C34.5635 9.09904 34.2824 9.29057 34.0084 9.55058C33.5909 9.95908 33.3431 10.3836 33.2649 10.8241C33.1892 11.2672 33.3297 11.6764 33.6865 12.0516C33.93 12.3077 34.1843 12.4584 34.4494 12.5037C34.7195 12.5492 35.0036 12.508 35.3019 12.3802L35.88 13.3688C35.3549 13.6185 34.8385 13.692 34.3307 13.5893C33.8254 13.4842 33.363 13.2111 32.9435 12.7699Z" fill="#456078"/>
<path d="M34.7513 14.5077L41.5137 11.1814L42 12.1849L37.8689 14.2206L41.2827 15.0248L41.8929 16.284L38.3301 15.4124L36.9284 19L36.2769 17.6556L37.6811 14.3131L35.2399 15.516L34.7513 14.5077Z" fill="#456078"/>
</svg>
