<svg width="84" height="28" viewBox="0 0 84 28" fill="none" xmlns="http://www.w3.org/2000/svg">
    <path d="M71.8561 26.2369V27.9996H84V20.0495H82.2305V26.2369H71.8561ZM71.8561 0V1.76278H82.2305V7.95051H84V0H71.8561ZM65.5936 13.6371V9.54096H68.3694C69.7228 9.54096 70.2085 9.99022 70.2085 11.2176V11.9434C70.2085 13.205 69.74 13.6371 68.3694 13.6371H65.5936ZM69.9999 14.3629C71.2662 14.0345 72.1508 12.859 72.1508 11.4594C72.1508 10.578 71.8041 9.78274 71.145 9.14314C70.3122 8.34792 69.2016 7.95051 67.7619 7.95051H63.8586V20.0491H65.5936V15.2271H68.196C69.5316 15.2271 70.0695 15.7801 70.0695 17.1631V20.0495H71.839V17.4396C71.839 15.5384 71.388 14.8126 69.9999 14.6051V14.3629ZM55.393 14.7603H60.7364V13.1703H55.393V9.54054H61.2567V7.95051H53.6233V20.0491H61.5169V18.459H55.393V14.7603ZM49.581 15.3999V16.2294C49.581 17.9751 48.939 18.5456 47.3258 18.5456H46.9442C45.3306 18.5456 44.5501 18.0269 44.5501 15.6245V12.3751C44.5501 9.95551 45.3655 9.45396 46.9787 9.45396H47.3254C48.9043 9.45396 49.4073 10.0417 49.4245 11.6664H51.3329C51.1595 9.28119 49.5634 7.77777 47.1693 7.77777C46.0071 7.77777 45.0355 8.14085 44.307 8.83192C43.214 9.85178 42.6069 11.5803 42.6069 13.9998C42.6069 16.3332 43.1275 18.0616 44.2029 19.1329C44.9314 19.8416 45.9377 20.2218 46.9267 20.2218C47.9674 20.2218 48.9219 19.8069 49.4073 18.9083H49.65V20.0491H51.246V13.8099H46.5446V15.3999H49.581ZM34.2802 9.54054H36.1714C37.9584 9.54054 38.93 9.98981 38.93 12.4098V15.5898C38.93 18.0094 37.9584 18.459 36.1714 18.459H34.2802V9.54054ZM36.3273 20.0495C39.641 20.0495 40.8723 17.5434 40.8723 14.0002C40.8723 10.4052 39.554 7.95093 36.2923 7.95093H32.545V20.0495H36.3273ZM24.1663 14.7603H29.5097V13.1703H24.1663V9.54054H30.0298V7.95051H22.3963V20.0491H30.2902V18.459H24.1663V14.7603ZM13.9308 7.95051H12.1614V20.0491H20.1416V18.459H13.9308V7.95051ZM0 20.0495V28H12.1438V26.2369H1.76937V20.0495H0ZM0 0V7.95051H1.76937V1.76278H12.1438V0H0Z" fill="white" />
</svg>