<svg width="14" height="14" viewBox="0 0 14 14" fill="none" xmlns="http://www.w3.org/2000/svg">
<circle cx="7" cy="7" r="6.5" stroke="#E9E9E9"/>
<path d="M6.2055 8.8495C6.2055 8.5965 6.22933 8.35267 6.277 8.118C6.32833 7.87967 6.41083 7.65967 6.5245 7.458C6.6235 7.26367 6.7335 7.10967 6.8545 6.996C6.9755 6.87867 7.11117 6.76317 7.2615 6.6495C7.41183 6.53217 7.57867 6.37633 7.762 6.182C7.91233 6.017 8.01133 5.85383 8.059 5.6925C8.10667 5.5275 8.1305 5.3515 8.1305 5.1645C8.1305 5.0435 8.11767 4.92983 8.092 4.8235C8.06633 4.71717 8.0205 4.6255 7.9545 4.5485C7.85183 4.41283 7.71983 4.3175 7.5585 4.2625C7.39717 4.20383 7.22483 4.1745 7.0415 4.1745C6.89117 4.1745 6.74633 4.19467 6.607 4.235C6.47133 4.27167 6.35583 4.33033 6.2605 4.411C6.1505 4.499 6.06983 4.60717 6.0185 4.7355C5.96717 4.86383 5.94333 5.005 5.947 5.159H4.55C4.58667 4.79233 4.68567 4.45317 4.847 4.1415C5.012 3.82617 5.22833 3.575 5.496 3.388C5.705 3.234 5.93967 3.1185 6.2 3.0415C6.464 2.9645 6.728 2.926 6.992 2.926C7.39533 2.926 7.77483 2.98833 8.1305 3.113C8.48983 3.23767 8.78867 3.443 9.027 3.729C9.192 3.916 9.31667 4.13233 9.401 4.378C9.489 4.62367 9.533 4.873 9.533 5.126C9.533 5.50367 9.4505 5.84833 9.2855 6.16C9.12417 6.47167 8.91883 6.7595 8.6695 7.0235C8.55217 7.14817 8.44033 7.25817 8.334 7.3535C8.22767 7.44883 8.12867 7.54233 8.037 7.634C7.949 7.722 7.87567 7.8155 7.817 7.9145C7.71433 8.08683 7.65383 8.2335 7.6355 8.3545C7.61717 8.47183 7.608 8.63683 7.608 8.8495H6.2055ZM6.2165 11V9.5425H7.608V11H6.2165Z" fill="#E9E9E9"/>
</svg>
