<svg width="20" height="19" viewBox="0 0 20 19" fill="none" xmlns="http://www.w3.org/2000/svg">
<path d="M8.3125 17.7556C8.3125 18.4927 7.72642 19.1009 7.01653 18.986C6.37093 18.8815 5.73809 18.699 5.13145 18.4413C4.12293 18.0128 3.20656 17.3848 2.43468 16.5931C1.66279 15.8014 1.05049 14.8616 0.632752 13.8272C0.215009 12.7928 -9.54319e-08 11.6842 0 10.5646C9.54319e-08 9.44495 0.215009 8.33631 0.632752 7.30192C1.05049 6.26754 1.66279 5.32768 2.43468 4.53599C3.20656 3.74431 4.12293 3.11631 5.13145 2.68786C5.73809 2.43013 6.37093 2.24765 7.01653 2.14313C7.72642 2.02821 8.3125 2.63642 8.3125 3.37352C8.3125 4.11062 7.72255 4.69305 7.02246 4.85959C6.71744 4.93214 6.41804 5.03048 6.1274 5.15395C5.43463 5.44827 4.80517 5.87964 4.27495 6.42346C3.74473 6.96728 3.32414 7.61288 3.03719 8.32341C2.75023 9.03395 2.60254 9.79549 2.60254 10.5646C2.60254 11.3336 2.75023 12.0952 3.03719 12.8057C3.32414 13.5162 3.74473 14.1618 4.27495 14.7057C4.80517 15.2495 5.43463 15.6809 6.1274 15.9752C6.41804 16.0986 6.71744 16.197 7.02246 16.2695C7.72255 16.4361 8.3125 17.0185 8.3125 17.7556Z" fill="#4092DB"/>
<path fill-rule="evenodd" clip-rule="evenodd" d="M1.37159 0.952122C1.58396 0.241282 2.31797 -0.158391 3.01103 0.059428L8.07168 1.6499C8.76475 1.86772 9.15443 2.62055 8.94206 3.33139L7.3912 8.52234C7.17882 9.23318 6.44482 9.63285 5.75176 9.41503C5.05869 9.19721 4.66901 8.44439 4.88138 7.73355L6.04771 3.82969L2.24196 2.63361C1.5489 2.41579 1.15922 1.66296 1.37159 0.952122Z" fill="#4092DB"/>
<path d="M11.6875 2.1789C11.6875 1.4806 12.2736 0.904401 12.9835 1.01327C13.6291 1.11229 14.2619 1.28517 14.8686 1.52933C15.8771 1.93523 16.7934 2.53018 17.5653 3.2802C18.3372 4.03021 18.9495 4.92061 19.3672 5.90055C19.785 6.88049 20 7.93079 20 8.99147C20 10.0522 19.785 11.1024 19.3672 12.0824C18.9495 13.0623 18.3372 13.9527 17.5653 14.7027C16.7934 15.4528 15.8771 16.0477 14.8686 16.4536C14.2619 16.6978 13.6291 16.8707 12.9835 16.9697C12.2736 17.0785 11.6875 16.5023 11.6875 15.804C11.6875 15.1057 12.2774 14.5539 12.9775 14.3962C13.2826 14.3274 13.582 14.2343 13.8726 14.1173C14.5654 13.8385 15.1948 13.4298 15.725 12.9146C16.2553 12.3994 16.6759 11.7878 16.9628 11.1147C17.2498 10.4415 17.3975 9.72006 17.3975 8.99147C17.3975 8.26287 17.2498 7.54141 16.9628 6.86828C16.6759 6.19514 16.2553 5.58352 15.725 5.06832C15.1948 4.55313 14.5654 4.14445 13.8726 3.86563C13.582 3.74865 13.2826 3.65549 12.9775 3.58676C12.2774 3.42899 11.6875 2.87721 11.6875 2.1789Z" fill="#4092DB"/>
<path fill-rule="evenodd" clip-rule="evenodd" d="M18.6284 18.098C18.416 18.7714 17.682 19.1501 16.989 18.9437L11.9283 17.4369C11.2352 17.2306 10.8456 16.5174 11.0579 15.8439L12.6088 10.9262C12.8212 10.2528 13.5552 9.87414 14.2482 10.0805C14.9413 10.2869 15.331 11.0001 15.1186 11.6735L13.9523 15.3719L17.758 16.505C18.4511 16.7114 18.8408 17.4246 18.6284 18.098Z" fill="#4092DB"/>
</svg>
