<svg width="93" height="26" viewBox="0 0 93 26" fill="none" xmlns="http://www.w3.org/2000/svg">
    <path d="M9.39602 0C5.84236 0 2.96644 2.87592 2.96644 6.42958V8.83933C1.71853 9.06524 0.467041 9.36646 0.467041 9.75733V22.3332C0.467041 22.3332 0.467041 22.681 0.857908 22.846C2.27435 23.4197 7.84689 25.392 9.12707 25.8438C9.29202 25.9048 9.33864 25.9048 9.38167 25.9048C9.44263 25.9048 9.47132 25.9048 9.63627 25.8438C10.9165 25.392 16.5033 23.4197 17.9198 22.846C18.282 22.6954 18.2963 22.3475 18.2963 22.3475V9.75733C18.2963 9.36646 17.0627 9.0509 15.8113 8.83933V6.42958C15.8292 2.87592 12.9353 0 9.39602 0ZM9.39602 3.07314C11.4902 3.07314 12.756 4.33898 12.756 6.43316V8.52735C10.4072 8.3624 8.40271 8.3624 6.03958 8.52735V6.43316C6.03958 4.33539 7.30542 3.07314 9.39602 3.07314ZM9.38167 11.6113C12.3042 11.6113 14.757 11.8372 14.757 12.2424V20.0884C14.757 20.2103 14.7426 20.2247 14.6351 20.2677C14.5311 20.3143 9.65062 22.075 9.65062 22.075C9.65062 22.075 9.45339 22.136 9.39602 22.136C9.33505 22.136 9.14141 22.0607 9.14141 22.0607C9.14141 22.0607 4.26096 20.3 4.15697 20.2534C4.05297 20.2067 4.03504 20.1924 4.03504 20.0741V12.228C4.00636 11.8228 6.45914 11.6113 9.38167 11.6113Z" fill="black" />
    <path d="M26.5893 20.1957V11.6036H23.45V8.52246H33.2382V11.6036H30.1297V20.1957H26.5893Z" fill="black" />
    <path d="M41.1688 20.1957L39.558 16.5251H38.2762V20.1957H34.7358V8.52246H40.9666C43.7015 8.52246 45.1684 10.3355 45.1684 12.5221C45.1684 14.5373 44.0031 15.6032 43.0675 16.0624L45.1821 20.1923H41.1688V20.1957ZM41.5869 12.5221C41.5869 11.888 41.0249 11.6138 40.4354 11.6138H38.2762V13.4577H40.4354C41.0249 13.444 41.5869 13.1698 41.5869 12.5221Z" fill="black" />
    <path d="M47.0261 20.1957V8.52246H55.8787V11.6036H50.5528V12.7551H55.7485V15.8362H50.5528V17.118H55.8787V20.1957H47.0261Z" fill="black" />
    <path d="M57.719 20.2094V17.4024L62.1676 11.6172H57.719V8.53613H66.8286V11.3156L62.3664 17.1317H66.9589V20.2128L57.719 20.2094Z" fill="black" />
    <path d="M67.8228 14.3797C67.8228 10.7948 70.6023 8.33398 74.2146 8.33398C77.8132 8.33398 80.6064 10.781 80.6064 14.3797C80.6064 17.9646 77.8269 20.4116 74.2146 20.4116C70.6023 20.4116 67.8228 17.9646 67.8228 14.3797ZM77.0078 14.3797C77.0078 12.7517 75.9008 11.4562 74.2009 11.4562C72.501 11.4562 71.394 12.7517 71.394 14.3797C71.394 16.0076 72.501 17.3031 74.2009 17.3031C75.9145 17.3031 77.0078 16.0076 77.0078 14.3797Z" fill="black" />
    <path d="M88.5199 20.2094L86.9091 16.5388H85.6273V20.2094H82.0869V8.53613H88.3177C91.0526 8.53613 92.5195 10.3492 92.5195 12.5357C92.5195 14.551 91.3542 15.6168 90.4186 16.0761L92.5332 20.2059H88.5199V20.2094ZM88.9517 12.522C88.9517 11.888 88.3896 11.6138 87.8002 11.6138H85.641V13.4577H87.8002C88.3931 13.444 88.9517 13.1698 88.9517 12.522Z" fill="black" />
</svg>