<svg width="140" height="36" viewBox="0 0 140 36" fill="none" xmlns="http://www.w3.org/2000/svg">
<g clip-path="url(#clip0_506_986)">
<path d="M18.0022 35.9788C27.9316 35.9788 35.981 27.9295 35.981 18.0002C35.981 8.07081 27.9316 0.0214844 18.0022 0.0214844C8.07281 0.0214844 0.0234375 8.07081 0.0234375 18.0002C0.0234375 27.9295 8.07281 35.9788 18.0022 35.9788Z" fill="#FEFEFE"/>
<path d="M10.5724 25.8759C10.9922 25.8759 11.3693 25.6482 11.5685 25.2783L14.2222 20.2554H10.1313C9.51232 20.2554 9.00718 19.7502 9.00718 19.1312V16.883C9.00718 16.264 9.51232 15.7589 10.1313 15.7589H16.5985L21.6215 6.23242C21.8136 5.86245 22.1978 5.63479 22.6176 5.63479H31.0698C27.7828 2.16285 23.144 0 18.0001 0C8.06093 0 0 8.06088 0 18C0 20.8245 0.65455 23.4996 1.81424 25.8759H10.5724Z" fill="#9B1C2E"/>
<path d="M25.4278 10.124C25.008 10.124 24.6309 10.3517 24.4317 10.7217L21.7779 15.7446H25.8689C26.4878 15.7446 26.993 16.2497 26.993 16.8687V19.1169C26.993 19.7359 26.4878 20.241 25.8689 20.241H19.4016L14.3787 29.7675C14.1866 30.1375 13.8024 30.3651 13.3826 30.3651H4.9375C8.21736 33.8371 12.8561 35.9999 18 35.9999C27.9392 35.9999 36.0002 27.9391 36.0002 17.9999C36.0002 15.1754 35.3456 12.5003 34.1859 10.124H25.4278Z" fill="#9B1C2E"/>
<path d="M121.961 28.2994L128.026 18.8736L122.07 9.50244H127.48L130.95 15.2126H131.195L134.72 9.50244H139.911L133.955 18.7643L139.993 28.2994H134.611L131.032 22.4253H130.758L127.152 28.2994H121.961Z" fill="#3D3939"/>
<path d="M106.992 28.2994V9.50244H120.161V13.1635H111.746V17.0157H118.877V20.6221H111.746V24.6383H120.161V28.2994H106.992Z" fill="#3D3939"/>
<path d="M88.4766 28.2994V9.50244H95.0609C96.7366 9.50244 98.1027 9.59351 99.1591 9.77565C100.216 9.93958 101.044 10.231 101.645 10.6499C102.246 11.0506 102.674 11.6153 102.929 12.3438C103.203 13.0542 103.376 13.9467 103.449 15.0213C103.521 16.0959 103.558 17.3891 103.558 18.9009C103.558 20.4127 103.521 21.7059 103.449 22.7805C103.376 23.8551 103.203 24.7567 102.929 25.4853C102.674 26.1956 102.246 26.7603 101.645 27.1792C101.044 27.5799 100.216 27.8713 99.1591 28.0535C98.1027 28.2174 96.7366 28.2994 95.0609 28.2994H88.4766ZM93.2304 24.6383H94.9517C95.6984 24.6383 96.3086 24.6201 96.7822 24.5837C97.2557 24.529 97.6291 24.4198 97.9023 24.2558C98.1938 24.0737 98.3941 23.7823 98.5034 23.3816C98.6309 22.9626 98.7038 22.398 98.722 21.6876C98.7584 20.9591 98.7766 20.0302 98.7766 18.9009C98.7766 17.7716 98.7584 16.8518 98.722 16.1415C98.7038 15.4129 98.6309 14.8483 98.5034 14.4476C98.3759 14.0286 98.1756 13.7281 97.9023 13.546C97.6291 13.3638 97.2557 13.2545 96.7822 13.2181C96.3086 13.1817 95.6984 13.1635 94.9517 13.1635H93.2304V24.6383Z" fill="#3D3939"/>
<path d="M78.6859 28.5184C77.4474 28.5184 76.4183 28.4455 75.5987 28.2998C74.779 28.1541 74.1324 27.9173 73.6589 27.5894C73.1853 27.2616 72.8392 26.8244 72.6207 26.278C72.4021 25.7316 72.2564 25.0486 72.1835 24.2289C72.1289 23.4093 72.1016 22.4349 72.1016 21.3056C72.1016 20.1763 72.1289 19.211 72.1835 18.4096C72.2564 17.5899 72.4021 16.9069 72.6207 16.3605C72.8392 15.814 73.1853 15.3769 73.6589 15.0491C74.1324 14.7212 74.779 14.4935 75.5987 14.366C76.4183 14.2203 77.4474 14.1475 78.6859 14.1475C79.9427 14.1475 80.9809 14.2203 81.8006 14.366C82.6202 14.4935 83.2668 14.7212 83.7403 15.0491C84.2139 15.3769 84.56 15.814 84.7786 16.3605C84.9971 16.9069 85.1337 17.5899 85.1884 18.4096C85.2612 19.211 85.2976 20.1763 85.2976 21.3056C85.2976 22.4349 85.2612 23.4093 85.1884 24.2289C85.1337 25.0486 84.9971 25.7316 84.7786 26.278C84.56 26.8244 84.2139 27.2616 83.7403 27.5894C83.2668 27.9173 82.6202 28.1541 81.8006 28.2998C80.9809 28.4455 79.9427 28.5184 78.6859 28.5184ZM78.6859 25.1852C79.2324 25.1852 79.6604 25.1488 79.97 25.0759C80.2797 25.003 80.4982 24.8391 80.6257 24.5841C80.7532 24.3291 80.8261 23.9375 80.8443 23.4093C80.8807 22.8811 80.899 22.1799 80.899 21.3056C80.899 20.4313 80.8807 19.7392 80.8443 19.2292C80.8261 18.7192 80.7532 18.3367 80.6257 18.0817C80.4982 17.8267 80.2797 17.6628 79.97 17.5899C79.6604 17.5171 79.2324 17.4806 78.6859 17.4806C78.1395 17.4806 77.7115 17.5171 77.4019 17.5899C77.1104 17.6628 76.901 17.8267 76.7735 18.0817C76.646 18.3367 76.564 18.7192 76.5276 19.2292C76.5094 19.7392 76.5003 20.4313 76.5003 21.3056C76.5003 22.1799 76.5094 22.8811 76.5276 23.4093C76.564 23.9375 76.646 24.3291 76.7735 24.5841C76.901 24.8391 77.1104 25.003 77.4019 25.0759C77.7115 25.1488 78.1395 25.1852 78.6859 25.1852Z" fill="#3D3939"/>
<path d="M61.4922 28.2998V14.366H65.645L65.7543 16.743H66.0002C66.2552 16.069 66.5739 15.5408 66.9564 15.1583C67.3571 14.7758 67.8398 14.5117 68.4044 14.366C68.9691 14.2203 69.6248 14.1475 70.3715 14.1475V18.1637C69.2241 18.1637 68.3225 18.3094 67.6668 18.6008C67.011 18.8922 66.5466 19.3931 66.2734 20.1035C66.0002 20.7956 65.8636 21.77 65.8636 23.0268V28.2998H61.4922Z" fill="#3D3939"/>
<path d="M43.5682 28.2996V17.699H41V14.3658H43.5682V13.4096C43.5682 12.3532 43.6319 11.4971 43.7594 10.8414C43.8869 10.1675 44.1146 9.63926 44.4425 9.25677C44.7703 8.87427 45.2257 8.60106 45.8085 8.43714C46.4096 8.255 47.1564 8.14571 48.0488 8.10928C48.9595 8.05464 50.0433 8.02732 51.3001 8.02732V11.0326C50.5533 11.0326 49.9522 11.0509 49.4969 11.0873C49.0597 11.1237 48.7319 11.2057 48.5133 11.3332C48.2947 11.4425 48.149 11.6155 48.0762 11.8523C48.0215 12.0708 47.9942 12.3896 47.9942 12.8085V14.3658H51.3001V17.699H47.9942V28.2996H43.5682ZM53.677 28.2996V14.3658H58.1303V28.2996H53.677ZM53.6497 11.5244V8H58.1576V11.5244H53.6497Z" fill="#3D3939"/>
</g>
<defs>
<clipPath id="clip0_506_986">
<rect width="140" height="36" fill="white"/>
</clipPath>
</defs>
</svg>
