<svg width="140" height="36" viewBox="0 0 140 36" fill="none" xmlns="http://www.w3.org/2000/svg">
<path fill-rule="evenodd" clip-rule="evenodd" d="M5.18501 30.5271C8.50492 33.8807 13.0077 35.7647 17.7027 35.7647C22.3978 35.7647 26.9006 33.8807 30.2205 30.5271C33.5404 27.1735 35.4055 22.625 35.4055 17.8824C35.4039 16.483 35.2423 15.0884 34.924 13.7265C34.8075 13.2314 34.5012 12.8032 34.0722 12.5363C33.6433 12.2693 33.1269 12.1854 32.6368 12.3031C32.1466 12.4207 31.7228 12.7302 31.4585 13.1635C31.3277 13.378 31.2399 13.6165 31.2003 13.8653C31.1607 14.1141 31.17 14.3683 31.2276 14.6135C31.933 17.5893 31.6572 20.7163 30.4423 23.5193C29.2273 26.3223 27.1396 28.648 24.4964 30.1427C21.8533 31.6375 18.7993 32.2197 15.7986 31.8008C12.798 31.3819 10.0148 29.9847 7.87211 27.8218C5.72942 25.6589 4.34443 22.8484 3.92764 19.8176C3.51086 16.7868 4.08509 13.7014 5.56305 11.0304C7.041 8.35942 9.34185 6.24892 12.1159 5.0197C14.8899 3.79048 17.9853 3.50977 20.9317 4.22024C21.4219 4.33785 21.9382 4.25396 22.3672 3.98702C22.7961 3.72007 23.1025 3.29194 23.2189 2.7968C23.3354 2.30166 23.2523 1.78008 22.988 1.3468C22.7238 0.913513 22.2999 0.604019 21.8098 0.4864C20.4639 0.164801 19.0857 0.00158285 17.7027 0C13.0077 0 8.50492 1.88403 5.18501 5.23762C1.86511 8.59121 0 13.1397 0 17.8824C0 22.625 1.86511 27.1735 5.18501 30.5271ZM28.6506 3.96765C29.3989 3.96765 30.1168 4.26676 30.6475 4.79966C31.1253 5.27675 31.4197 5.90988 31.478 6.58598C31.5364 7.26208 31.355 7.93713 30.9661 8.49057C30.8753 8.62112 30.7759 8.74538 30.6687 8.86253C30.2044 9.33053 29.5938 9.62127 28.9409 9.68511H28.5939H28.4806C27.7579 9.74521 27.0564 9.96188 26.424 10.3204C25.7916 10.6789 25.243 11.1708 24.8157 11.7627C24.3884 12.3545 24.0923 13.0324 23.9475 13.7502C23.8028 14.4681 23.8129 15.2089 23.9771 15.9225V15.9797C24.0035 16.1007 24.0366 16.2201 24.0762 16.3373C24.2854 17.2479 24.3014 18.1928 24.1232 19.11C23.945 20.0272 23.5767 20.896 23.0424 21.6591C22.8321 21.9793 22.5952 22.2809 22.3342 22.5604C21.1051 23.802 19.438 24.4996 17.6997 24.4996C15.9614 24.4996 14.2943 23.802 13.0651 22.5604C11.8359 21.3188 11.1454 19.6347 11.1454 17.8788C11.1454 16.1229 11.8359 14.4388 13.0651 13.1972L13.2634 13.0184C14.4451 11.9099 15.9916 11.283 17.6041 11.2588C18.155 11.2491 18.7048 11.3116 19.2398 11.4447L19.6505 11.552C20.3509 11.7187 21.0784 11.7321 21.7844 11.5915C22.4904 11.451 23.1584 11.1596 23.7438 10.7369C24.3292 10.3142 24.8184 9.77008 25.1786 9.14086C25.5388 8.51165 25.7617 7.81193 25.8323 7.0886V6.88116V6.57358C25.8926 5.94088 26.1562 5.3455 26.5829 4.87834C26.6083 4.85377 26.6319 4.82748 26.6537 4.79966C27.1844 4.26676 27.9023 3.96765 28.6506 3.96765ZM64.523 6.41596C62.7992 6.41725 61.144 7.09833 59.91 8.31415C58.6759 9.52996 57.9606 11.1844 57.9163 12.9251C57.9163 16.7591 60.6284 19.4343 64.523 19.4343C66.248 19.4349 67.905 18.7546 69.1405 17.5386C70.3761 16.3226 71.0924 14.6671 71.1367 12.9251C71.1367 9.09116 68.4176 6.41596 64.523 6.41596ZM67.2704 12.9251C67.2911 13.2991 67.2348 13.6733 67.1052 14.0241C66.9756 14.375 66.7754 14.6949 66.5172 14.9637C66.2591 15.2326 65.9486 15.4444 65.6054 15.586C65.2621 15.7276 64.8936 15.7958 64.523 15.7863C64.1535 15.7916 63.7868 15.7205 63.4455 15.5774C63.1042 15.4344 62.7955 15.2224 62.5382 14.9545C62.2809 14.6865 62.0805 14.3683 61.9494 14.0194C61.8182 13.6704 61.7591 13.298 61.7755 12.9251C61.7548 12.5512 61.8111 12.177 61.9407 11.8261C62.0704 11.4753 62.2706 11.1553 62.5287 10.8865C62.7868 10.6177 63.0973 10.4058 63.4406 10.2643C63.7838 10.1227 64.1523 10.0545 64.523 10.064C64.8948 10.0501 65.2653 10.1153 65.6105 10.2553C65.9558 10.3953 66.268 10.6071 66.5271 10.8769C66.7861 11.1466 66.9862 11.4684 67.1142 11.8212C67.2423 12.1741 67.2955 12.5502 67.2704 12.9251ZM84.2572 8.23272C85.5195 7.06914 87.1652 6.42153 88.874 6.41587C92.7332 6.41587 95.4311 9.09107 95.4099 12.9537V18.6045C95.408 18.7588 95.346 18.9062 95.2373 19.0146C95.1287 19.1231 94.982 19.1839 94.8293 19.1839H92.1172C91.9651 19.1839 91.8192 19.1228 91.7116 19.0142C91.6041 18.9055 91.5436 18.7581 91.5436 18.6045V12.9537C91.5643 12.5797 91.508 12.2055 91.3784 11.8547C91.2488 11.5038 91.0486 11.1839 90.7904 10.915C90.5323 10.6462 90.2218 10.4344 89.8786 10.2928C89.5353 10.1512 89.1668 10.083 88.7962 10.0925C88.4244 10.0786 88.0538 10.1438 87.7086 10.2838C87.3633 10.4239 87.0511 10.6356 86.792 10.9054C86.533 11.1752 86.333 11.4969 86.2049 11.8497C86.0769 12.2026 86.0236 12.5787 86.0487 12.9537V18.6045C86.0487 18.7581 85.9883 18.9055 85.8807 19.0142C85.7731 19.1228 85.6272 19.1839 85.4751 19.1839H82.7985C82.6463 19.1839 82.5005 19.1228 82.3929 19.0142C82.2853 18.9055 82.2249 18.7581 82.2249 18.6045V12.9537C82.25 12.5787 82.1967 12.2026 82.0687 11.8497C81.9406 11.4969 81.7406 11.1752 81.4815 10.9054C81.2225 10.6356 80.9102 10.4239 80.565 10.2838C80.2197 10.1438 79.8492 10.0786 79.4774 10.0925C79.1068 10.083 78.7382 10.1512 78.395 10.2928C78.0518 10.4344 77.7413 10.6462 77.4832 10.915C77.225 11.1839 77.0248 11.5038 76.8952 11.8547C76.7656 12.2055 76.7093 12.5797 76.73 12.9537V18.6045C76.73 18.7581 76.6695 18.9055 76.562 19.0142C76.4544 19.1228 76.3085 19.1839 76.1564 19.1839H73.4373C73.3577 19.1869 73.2784 19.1733 73.2044 19.1437C73.1304 19.1141 73.0633 19.0694 73.0073 19.0122C72.9514 18.955 72.9078 18.8867 72.8794 18.8115C72.8511 18.7364 72.8385 18.6562 72.8424 18.5759V12.925C72.8424 8.90509 76.3051 6.41587 79.5128 6.41587C81.2701 6.36264 82.9765 7.01609 84.2572 8.23272ZM103.752 6.41596C102.027 6.4172 100.371 7.09805 99.1362 8.31368C97.901 9.52931 97.1842 11.1838 97.1381 12.9251C97.1381 16.7591 99.8572 19.4343 103.752 19.4343C105.476 19.4348 107.132 18.7543 108.367 17.5381C109.601 16.322 110.316 14.6664 110.358 12.9251C110.358 9.09116 107.639 6.41596 103.752 6.41596ZM106.499 12.9251C106.52 13.2991 106.464 13.6733 106.334 14.0241C106.204 14.375 106.004 14.6949 105.746 14.9637C105.488 15.2326 105.177 15.4444 104.834 15.586C104.491 15.7276 104.122 15.7958 103.752 15.7863C103.077 15.6891 102.459 15.3491 102.012 14.8288C101.565 14.3084 101.319 13.6426 101.319 12.9537C101.319 12.2648 101.565 11.5991 102.012 11.0787C102.459 10.5584 103.077 10.2184 103.752 10.1212C104.119 10.1079 104.484 10.1716 104.825 10.3082C105.166 10.4448 105.476 10.6514 105.734 10.9149C105.992 11.1783 106.193 11.493 106.325 11.839C106.457 12.185 106.516 12.5548 106.499 12.9251ZM118.743 6.40867C119.646 6.44164 120.528 6.68654 121.321 7.12397V0.857992C121.321 0.713148 121.377 0.574129 121.478 0.471041C121.579 0.367954 121.716 0.309096 121.859 0.307215H124.642C124.785 0.309096 124.922 0.367954 125.023 0.471041C125.124 0.574129 125.18 0.713148 125.18 0.857992V12.9107C125.138 14.652 124.423 16.3075 123.188 17.5237C121.954 18.7399 120.298 19.4204 118.574 19.4199C114.679 19.4199 111.96 16.7447 111.96 12.9107C111.971 12.0304 112.157 11.1613 112.507 10.3548C112.856 9.54822 113.362 8.8205 113.994 8.21451C114.626 7.60853 115.372 7.13654 116.188 6.8264C117.004 6.51625 117.873 6.37422 118.743 6.40867ZM121.156 14.024C121.285 13.6731 121.342 13.2989 121.321 12.925C121.338 12.5547 121.279 12.1849 121.147 11.8389C121.015 11.4929 120.814 11.1782 120.556 10.9147C120.297 10.6513 119.988 10.4447 119.647 10.3081C119.306 10.1715 118.94 10.1078 118.574 10.121C117.898 10.2182 117.281 10.5582 116.834 11.0786C116.387 11.5989 116.141 12.2647 116.141 12.9536C116.141 13.6425 116.387 14.3083 116.834 14.8286C117.281 15.349 117.898 15.689 118.574 15.7862C118.944 15.7957 119.313 15.7275 119.656 15.5859C119.999 15.4443 120.31 15.2324 120.568 14.9636C120.826 14.6948 121.026 14.3749 121.156 14.024ZM133.393 6.41596C131.669 6.4172 130.013 7.09805 128.778 8.31368C127.543 9.52931 126.826 11.1838 126.78 12.9251C126.78 16.7591 129.499 19.4343 133.393 19.4343C135.118 19.4348 136.774 18.7543 138.008 17.5381C139.243 16.322 139.957 14.6664 140 12.9251C140 9.09116 137.281 6.41596 133.393 6.41596ZM136.141 12.9251C136.161 13.2991 136.105 13.6733 135.976 14.0241C135.846 14.375 135.646 14.6949 135.388 14.9637C135.129 15.2326 134.819 15.4444 134.476 15.586C134.133 15.7276 133.764 15.7958 133.393 15.7863C133.024 15.7916 132.657 15.7205 132.316 15.5774C131.975 15.4344 131.666 15.2224 131.409 14.9545C131.151 14.6865 130.951 14.3683 130.82 14.0194C130.689 13.6704 130.629 13.298 130.646 12.9251C130.625 12.5512 130.681 12.177 130.811 11.8261C130.941 11.4753 131.141 11.1553 131.399 10.8865C131.657 10.6177 131.968 10.4058 132.311 10.2643C132.654 10.1227 133.023 10.0545 133.393 10.064C133.765 10.0501 134.136 10.1153 134.481 10.2553C134.826 10.3953 135.138 10.6071 135.397 10.8769C135.656 11.1466 135.857 11.4684 135.985 11.8212C136.113 12.1741 136.166 12.5502 136.141 12.9251ZM53.6113 6.41583H57.7538C57.8335 6.42086 57.9102 6.44811 57.9755 6.49456C58.0408 6.54101 58.0921 6.60484 58.1236 6.67894C58.1552 6.75305 58.1658 6.83455 58.1542 6.91437C58.1427 6.99419 58.1095 7.06922 58.0582 7.13112L53.5263 11.7162C53.4525 11.789 53.4075 11.8866 53.3996 11.9906C53.3918 12.0946 53.4218 12.1979 53.4839 12.2812L58.122 18.7189C58.1758 18.7841 58.2097 18.8637 58.2194 18.948C58.2291 19.0323 58.2143 19.1176 58.1767 19.1936C58.1391 19.2695 58.0804 19.3327 58.0078 19.3754C57.9352 19.4182 57.8518 19.4386 57.7679 19.4342H54.1566C54.0878 19.4345 54.0199 19.4184 53.9585 19.3874C53.897 19.3563 53.8435 19.3111 53.8025 19.2554L50.8497 15.171C50.8134 15.119 50.7663 15.0757 50.7117 15.044C50.6571 15.0123 50.5963 14.9931 50.5336 14.9876C50.4709 14.9822 50.4077 14.9906 50.3486 15.0124C50.2894 15.0342 50.2357 15.0688 50.1911 15.1138L49.0157 16.3083C48.9745 16.3479 48.942 16.3957 48.92 16.4486C48.8981 16.5016 48.8873 16.5585 48.8882 16.6159V18.9979C48.8882 19.0558 48.8768 19.1131 48.8547 19.1665C48.8325 19.2199 48.8001 19.2683 48.7592 19.3089C48.7184 19.3495 48.6699 19.3815 48.6167 19.403C48.5634 19.4245 48.5065 19.4351 48.4492 19.4342H45.461C45.4037 19.4351 45.3467 19.4245 45.2935 19.403C45.2403 19.3815 45.1918 19.3495 45.151 19.3089C45.1101 19.2683 45.0776 19.2199 45.0555 19.1665C45.0333 19.1131 45.0219 19.0558 45.0219 18.9979V0.750697C45.0219 0.692458 45.0333 0.63479 45.0554 0.580984C45.0774 0.527178 45.1098 0.478289 45.1505 0.437108C45.1913 0.395927 45.2397 0.363261 45.293 0.340974C45.3462 0.318687 45.4033 0.307215 45.461 0.307215H48.4704C48.5281 0.307215 48.5852 0.318687 48.6385 0.340974C48.6917 0.363261 48.7401 0.395927 48.7809 0.437108C48.8216 0.478289 48.854 0.527178 48.8761 0.580984C48.8981 0.63479 48.9095 0.692458 48.9095 0.750697V9.96369C48.9145 10.0442 48.9414 10.1217 48.9874 10.1877C49.0334 10.2537 49.0966 10.3054 49.1699 10.3373C49.2433 10.3692 49.324 10.3799 49.403 10.3682C49.482 10.3566 49.5563 10.323 49.6176 10.2713L53.2997 6.54458C53.3845 6.46463 53.4954 6.41883 53.6113 6.41583Z" fill="#ADAFC4"/>
<path d="M46.9784 33.6472L44.5781 24.9199H45.9515L47.6376 31.6784H47.7179L49.4717 24.9199H50.8324L52.5861 31.6827H52.6664L54.3483 24.9199H55.7259L53.3214 33.6472H52.0072L50.1858 27.1103H50.1182L48.2969 33.6472H46.9784Z" fill="#ADAFC4"/>
<path d="M56.9039 33.6472H55.5178L58.6323 24.9199H60.1409L63.2553 33.6472H61.8693L59.4225 26.5051H59.3549L56.9039 33.6472ZM57.1363 30.2296H61.6326V31.3375H57.1363V30.2296Z" fill="#ADAFC4"/>
<path d="M64.5051 33.6472V24.9199H65.8109V32.5137H69.7325V33.6472H64.5051Z" fill="#ADAFC4"/>
<path d="M71.2221 33.6472V24.9199H72.5279V32.5137H76.4495V33.6472H71.2221Z" fill="#ADAFC4"/>
<path d="M77.9391 33.6472V24.9199H83.3651V26.0534H79.2449V28.7125H83.082V29.8418H79.2449V32.5137H83.4158V33.6472H77.9391Z" fill="#ADAFC4"/>
<path d="M84.6825 26.0534V24.9199H91.3805V26.0534H88.6802V33.6472H87.3786V26.0534H84.6825Z" fill="#ADAFC4"/>
</svg>
