<?xml version="1.0" standalone="no"?>
<!DOCTYPE svg PUBLIC "-//W3C//DTD SVG 20010904//EN"
 "http://www.w3.org/TR/2001/REC-SVG-20010904/DTD/svg10.dtd">
<svg version="1.0" xmlns="http://www.w3.org/2000/svg"
 width="600.000000pt" height="600.000000pt" viewBox="0 0 600.000000 600.000000"
 preserveAspectRatio="xMidYMid meet">
<metadata>
Created by potrace 1.14, written by Peter Selinger 2001-2017
</metadata>
<g transform="translate(0.000000,600.000000) scale(0.100000,-0.100000)"
fill="#000000" stroke="none">
<path d="M2789 5996 c-2 -2 -38 -6 -79 -10 -74 -6 -241 -30 -290 -41 -14 -3
-36 -8 -50 -11 -217 -42 -515 -149 -755 -272 -114 -59 -397 -236 -436 -274 -8
-7 -34 -29 -59 -48 -67 -51 -64 -48 -221 -202 -166 -164 -192 -192 -304 -343
-329 -441 -524 -944 -582 -1505 -10 -96 -10 -482 0 -580 30 -297 111 -612 226
-885 296 -698 873 -1278 1566 -1577 297 -127 625 -211 930 -236 175 -14 541
-7 655 13 14 2 66 11 115 19 99 16 95 15 215 44 429 103 858 322 1210 615 81
68 261 243 325 317 58 67 120 144 135 166 8 12 40 58 71 101 208 291 372 659
459 1028 25 107 31 140 45 235 2 14 9 61 16 105 14 98 20 524 8 620 -5 39 -11
93 -14 120 -5 44 -10 76 -31 195 -39 218 -131 341 -293 395 -231 76 -476 -65
-530 -306 -12 -54 -7 -147 12 -225 15 -59 23 -110 32 -195 3 -24 7 -63 10 -86
8 -54 7 -258 0 -348 -24 -288 -101 -559 -231 -815 -128 -250 -277 -445 -491
-641 -56 -51 -226 -178 -306 -227 -183 -114 -485 -240 -641 -268 -16 -3 -32
-7 -35 -9 -4 -2 -27 -6 -51 -10 -25 -3 -52 -8 -60 -10 -136 -36 -505 -38 -702
-4 -147 26 -173 32 -309 73 -503 153 -945 500 -1223 960 -47 79 -142 270 -165
336 -7 19 -17 44 -22 55 -10 25 -48 150 -53 179 -2 11 -11 48 -19 81 -9 33
-18 78 -22 100 -3 23 -7 52 -10 65 -29 152 -24 479 10 673 20 114 21 115 50
222 189 696 731 1260 1430 1490 75 25 171 51 220 59 17 3 41 8 55 11 46 10 75
14 135 20 33 4 76 8 95 11 50 6 286 5 345 -1 128 -13 193 -23 295 -44 109 -23
153 -25 215 -10 113 27 220 107 272 206 133 251 -7 539 -289 597 -138 29 -204
40 -293 51 -27 4 -61 9 -75 11 -28 6 -506 15 -511 10z"/>
<path d="M4742 5369 c-165 -20 -303 -101 -395 -232 -56 -78 -94 -175 -101
-252 -3 -33 -8 -88 -11 -122 -24 -276 -229 -528 -501 -617 -80 -26 -93 -28
-209 -33 -96 -4 -125 -1 -215 21 -149 36 -201 42 -325 40 -160 -2 -259 -20
-404 -73 -423 -155 -753 -569 -798 -1005 -31 -291 36 -562 200 -806 63 -94
220 -250 312 -311 428 -283 973 -269 1381 37 85 64 213 195 276 284 206 290
270 634 183 995 -28 119 -34 198 -23 298 23 200 144 403 305 513 63 43 165 94
188 94 7 0 16 4 19 9 3 5 25 12 49 15 24 4 56 9 70 12 15 2 55 6 90 8 217 15
391 130 481 321 43 91 57 150 56 244 0 86 0 84 -24 166 -60 204 -263 372 -471
392 -27 2 -54 5 -60 7 -5 1 -39 -1 -73 -5z"/>
</g>
</svg>
