<?xml version="1.0" encoding="UTF-8"?>
<svg id="Layer_1" data-name="Layer 1" xmlns="http://www.w3.org/2000/svg" viewBox="0 0 600 600">
  <path d="m176.59,430.81c6.93,0,13.29-3.84,16.53-9.97l44.03-83.47h-67.96c-10.28,0-18.69-8.41-18.69-18.69v-37.37c0-10.28,8.41-18.69,18.69-18.69h107.39l83.46-158.22c3.23-6.13,9.6-9.97,16.53-9.97h140.45C462.52,36.93,385.48,1,300,1,134.87,1,1,134.87,1,300c0,46.92,10.83,91.3,30.09,130.81h145.5Z"/>
  <path d="m423.41,169.19c-6.93,0-13.29,3.84-16.53,9.97l-44.03,83.47h67.96c10.28,0,18.69,8.41,18.69,18.69v37.37c0,10.28-8.41,18.69-18.69,18.69h-107.39l-83.45,158.22c-3.23,6.13-9.6,9.97-16.53,9.97H82.99c54.49,57.51,131.53,93.44,217.01,93.44,165.13,0,299-133.87,299-299,0-46.92-10.83-91.3-30.09-130.81h-145.5Z"/>
</svg>