<svg width="21" height="21" viewBox="0 0 21 21" fill="none" xmlns="http://www.w3.org/2000/svg">
<path d="M0.65625 10.5C0.65625 14.7984 3.4125 18.4406 7.21875 19.7859V1.21405C3.4125 2.55936 0.65625 6.20155 0.65625 10.5Z" fill="#FF0000"/>
<path d="M10.5 0.65625C9.35156 0.65625 8.23594 0.853125 7.21875 1.21406V7.21875H19.7859C18.4406 3.4125 14.7984 0.65625 10.5 0.65625Z" fill="#00732F"/>
<path d="M19.7859 7.21875H7.21875V13.7812H19.7859C20.1469 12.7641 20.3438 11.6484 20.3438 10.5C20.3438 9.35156 20.1469 8.23594 19.7859 7.21875Z" fill="white"/>
<path d="M7.21875 13.7812V19.7859C8.23594 20.1469 9.35156 20.3438 10.5 20.3438C14.7984 20.3438 18.4406 17.6203 19.7859 13.7812H7.21875Z" fill="black"/>
</svg>
