<svg width="21" height="21" viewBox="0 0 21 21" fill="none" xmlns="http://www.w3.org/2000/svg">
<path d="M10.5 21C16.299 21 21 16.299 21 10.5C21 4.70101 16.299 0 10.5 0C4.70101 0 0 4.70101 0 10.5C0 16.299 4.70101 21 10.5 21Z" fill="#D80027"/>
<path d="M5.74629 6.39062L6.65273 9.17969H9.58535L7.21465 10.9064L8.12109 13.6955L5.74629 11.9729L3.37148 13.6955L4.28203 10.9064L1.90723 9.17969H4.83984L5.74629 6.39062Z" fill="#FFDA44"/>
<path d="M12.4488 16.2639L11.7557 15.4107L10.7303 15.8086L11.325 14.8857L10.6318 14.0285L11.6941 14.3115L12.293 13.3887L12.3504 14.4879L13.4168 14.7709L12.3873 15.1646L12.4488 16.2639Z" fill="#FFDA44"/>
<path d="M13.827 13.7619L14.1551 12.7119L13.2568 12.0762L14.3561 12.0598L14.6801 11.0098L15.0369 12.0516L16.1361 12.0393L15.2543 12.6955L15.607 13.7373L14.7088 13.1016L13.827 13.7619Z" fill="#FFDA44"/>
<path d="M15.6838 7.70742L15.1998 8.6959L15.9873 9.46289L14.9004 9.30703L14.4164 10.2914L14.2277 9.20859L13.1367 9.05273L14.1129 8.54004L13.9242 7.45312L14.7117 8.22012L15.6838 7.70742Z" fill="#FFDA44"/>
<path d="M12.4771 4.71289L12.3951 5.80801L13.4164 6.22227L12.3459 6.48477L12.268 7.58398L11.6896 6.64883L10.6191 6.91133L11.3287 6.07051L10.7463 5.13945L11.7676 5.55371L12.4771 4.71289Z" fill="#FFDA44"/>
</svg>
