<svg width="21" height="21" viewBox="0 0 21 21" fill="none" xmlns="http://www.w3.org/2000/svg">
<g clip-path="url(#clip0)">
<path d="M10.5 21C16.299 21 21 16.299 21 10.5C21 4.70101 16.299 0 10.5 0C4.70101 0 0 4.70101 0 10.5C0 16.299 4.70101 21 10.5 21Z" fill="#F0F0F0"/>
<path d="M10.043 10.5009H20.9995C20.9995 9.55316 20.8731 8.63506 20.6378 7.76172H10.043V10.5009Z" fill="#D80027"/>
<path d="M10.043 5.02235H19.4584C18.8156 3.9735 17.9938 3.04642 17.0356 2.2832H10.043V5.02235Z" fill="#D80027"/>
<path d="M10.5 21.0014C12.9711 21.0014 15.2424 20.1472 17.036 18.7188H3.96387C5.75748 20.1472 8.0288 21.0014 10.5 21.0014Z" fill="#D80027"/>
<path d="M1.54073 15.9794H19.4585C19.9745 15.1374 20.3747 14.217 20.6379 13.2402H0.361328C0.624525 14.217 1.02471 15.1374 1.54073 15.9794Z" fill="#D80027"/>
<path d="M4.8638 1.63972H5.82065L4.93061 2.28633L5.27059 3.3326L4.38059 2.68599L3.49059 3.3326L3.78427 2.42874C3.00062 3.0815 2.31377 3.84628 1.74776 4.69842H2.05435L1.4878 5.11001C1.39954 5.25726 1.31488 5.40684 1.23375 5.55864L1.50429 6.3913L0.999551 6.02458C0.874084 6.2904 0.759322 6.56221 0.656168 6.83968L0.954229 7.75712H2.05435L1.16431 8.40373L1.50429 9.45L0.614291 8.80339L0.0811699 9.19074C0.0278086 9.61968 0 10.0566 0 10.5H10.5C10.5 4.70105 10.5 4.0174 10.5 0C8.42576 0 6.49216 0.601699 4.8638 1.63972ZM5.27059 9.45L4.38059 8.80339L3.49059 9.45L3.83057 8.40373L2.94053 7.75712H4.04065L4.38059 6.71085L4.72053 7.75712H5.82065L4.93061 8.40373L5.27059 9.45ZM4.93061 5.34503L5.27059 6.3913L4.38059 5.74469L3.49059 6.3913L3.83057 5.34503L2.94053 4.69842H4.04065L4.38059 3.65215L4.72053 4.69842H5.82065L4.93061 5.34503ZM9.03689 9.45L8.14689 8.80339L7.25689 9.45L7.59687 8.40373L6.70683 7.75712H7.80696L8.14689 6.71085L8.48683 7.75712H9.58695L8.69691 8.40373L9.03689 9.45ZM8.69691 5.34503L9.03689 6.3913L8.14689 5.74469L7.25689 6.3913L7.59687 5.34503L6.70683 4.69842H7.80696L8.14689 3.65215L8.48683 4.69842H9.58695L8.69691 5.34503ZM8.69691 2.28633L9.03689 3.3326L8.14689 2.68599L7.25689 3.3326L7.59687 2.28633L6.70683 1.63972H7.80696L8.14689 0.593455L8.48683 1.63972H9.58695L8.69691 2.28633Z" fill="#0052B4"/>
</g>
<defs>
<clipPath id="clip0">
<rect width="21" height="21" fill="white"/>
</clipPath>
</defs>
</svg>
