<svg width="21" height="21" viewBox="0 0 21 21" fill="none" xmlns="http://www.w3.org/2000/svg">
<g clip-path="url(#clip0)">
<path d="M10.5 21C16.299 21 21 16.299 21 10.5C21 4.70101 16.299 0 10.5 0C4.70101 0 0 4.70101 0 10.5C0 16.299 4.70101 21 10.5 21Z" fill="#F0F0F0"/>
<path d="M21.0002 10.4993C21.0002 5.98462 18.1508 2.13592 14.1523 0.652344V20.3462C18.1508 18.8626 21.0002 15.0139 21.0002 10.4993Z" fill="#D80027"/>
<path d="M0 10.4993C0 15.0139 2.84948 18.8626 6.84785 20.3462V0.652344C2.84948 2.13592 0 5.98462 0 10.4993Z" fill="#0052B4"/>
</g>
<defs>
<clipPath id="clip0">
<rect width="21" height="21" fill="white"/>
</clipPath>
</defs>
</svg>
