<svg width="24" height="24" viewBox="0 0 24 24" fill="none" xmlns="http://www.w3.org/2000/svg">
<path fill-rule="evenodd" clip-rule="evenodd" d="M22.0485 15.7164C22.0485 17.4019 20.6822 18.7683 18.9966 18.7683C17.6674 18.7683 16.5366 17.9185 16.118 16.7326C16.1019 16.7333 16.0856 16.7337 16.0693 16.7337H2.98972C2.41642 16.7337 1.95166 16.2689 1.95166 15.6956C1.95166 15.1223 2.41642 14.6576 2.98972 14.6576H16.0693C16.0906 14.6576 16.1117 14.6582 16.1327 14.6595C16.5627 13.4948 17.6827 12.6645 18.9966 12.6645C20.6822 12.6645 22.0485 14.0309 22.0485 15.7164ZM20.8029 15.7164C20.8029 16.7139 19.9942 17.5226 18.9966 17.5226C17.9991 17.5226 17.1904 16.7139 17.1904 15.7164C17.1904 14.7188 17.9991 13.9102 18.9966 13.9102C19.9942 13.9102 20.8029 14.7188 20.8029 15.7164Z" fill="white"/>
<path fill-rule="evenodd" clip-rule="evenodd" d="M7.88181 8.71984C7.46284 9.90519 6.33238 10.7544 5.00356 10.7544C3.31804 10.7544 1.95166 9.38806 1.95166 7.70254C1.95166 6.01702 3.31804 4.65063 5.00356 4.65063C6.31681 4.65063 7.43633 5.4801 7.86679 6.64371H21.0105C21.5838 6.64371 22.0485 7.10847 22.0485 7.68178C22.0485 8.25508 21.5838 8.71984 21.0105 8.71984H7.88181ZM6.80979 7.70254C6.80979 8.70009 6.00112 9.50877 5.00356 9.50877C4.00601 9.50877 3.19733 8.70009 3.19733 7.70254C3.19733 6.70499 4.00601 5.89631 5.00356 5.89631C6.00112 5.89631 6.80979 6.70499 6.80979 7.70254Z" fill="white"/>
</svg>
