<svg width="24" height="24" viewBox="0 0 24 24" fill="none" xmlns="http://www.w3.org/2000/svg">
<path d="M8.60193 7.06474C8.17744 6.64026 7.48922 6.64026 7.06474 7.06474C6.64026 7.48922 6.64026 8.17744 7.06474 8.60193L13.5423 15.0795L9.64503 15.0791C9.04473 15.079 8.55803 15.5656 8.55797 16.1659C8.55791 16.7662 9.04451 17.2529 9.64482 17.253L16.1666 17.2536C16.4549 17.2536 16.7314 17.1391 16.9352 16.9353C17.1391 16.7315 17.2536 16.455 17.2536 16.1667L17.2536 9.64493C17.2536 9.04462 16.767 8.55797 16.1667 8.55797C15.5664 8.55797 15.0797 9.04462 15.0797 9.64493V13.5425L8.60193 7.06474Z" fill="white"/>
<path fill-rule="evenodd" clip-rule="evenodd" d="M22 12C22 17.5228 17.5228 22 12 22C6.47715 22 2 17.5228 2 12C2 6.47715 6.47715 2 12 2C17.5228 2 22 6.47715 22 12ZM21.1667 12C21.1667 17.0626 17.0626 21.1667 12 21.1667C6.93739 21.1667 2.83333 17.0626 2.83333 12C2.83333 6.93739 6.93739 2.83333 12 2.83333C17.0626 2.83333 21.1667 6.93739 21.1667 12Z" fill="white"/>
</svg>
