<svg width="24" height="24" viewBox="0 0 24 24" fill="none" xmlns="http://www.w3.org/2000/svg">
<path d="M7.06474 15.3981C6.64026 15.8226 6.64026 16.5108 7.06474 16.9353C7.48922 17.3597 8.17744 17.3597 8.60193 16.9353L15.0795 10.4577L15.0791 14.355C15.079 14.9553 15.5656 15.442 16.1659 15.442C16.7662 15.4421 17.2529 14.9555 17.253 14.3552L17.2536 7.83344C17.2536 7.54514 17.1391 7.26865 16.9353 7.06478C16.7315 6.86091 16.455 6.74638 16.1667 6.74638L9.64493 6.74638C9.04462 6.74638 8.55797 7.23302 8.55797 7.83333C8.55797 8.43364 9.04462 8.92029 9.64493 8.92029H13.5425L7.06474 15.3981Z" fill="white"/>
<path fill-rule="evenodd" clip-rule="evenodd" d="M22 12C22 17.5228 17.5228 22 12 22C6.47715 22 2 17.5228 2 12C2 6.47715 6.47715 2 12 2C17.5228 2 22 6.47715 22 12ZM21.1667 12C21.1667 17.0626 17.0626 21.1667 12 21.1667C6.93739 21.1667 2.83333 17.0626 2.83333 12C2.83333 6.93739 6.93739 2.83333 12 2.83333C17.0626 2.83333 21.1667 6.93739 21.1667 12Z" fill="white"/>
</svg>
