<?xml version="1.0" encoding="utf-8"?>
<svg viewBox="28.4199 0 27.8504 23.976"
  xmlns="http://www.w3.org/2000/svg">
  <defs>
    <linearGradient id="paint0_linear_458_596" x1="32.9009" y1="27.1229" x2="51.8053" y2="8.21854" gradientUnits="userSpaceOnUse">
      <stop stop-color="#0073D1"/>
      <stop offset="0.06" stop-color="#0082CE"/>
      <stop offset="0.22" stop-color="#00A0C9"/>
      <stop offset="0.39" stop-color="#00B8C4"/>
      <stop offset="0.57" stop-color="#00C9C1"/>
      <stop offset="0.76" stop-color="#00D3C0"/>
      <stop offset="1" stop-color="#00D6BF"/>
    </linearGradient>
  </defs>
  <path d="M54.0216 23.9759H30.675C30.2794 23.9788 29.8901 23.8768 29.5467 23.6803C29.2033 23.4838 28.9182 23.1998 28.7202 22.8573C28.5223 22.5147 28.4187 22.1258 28.4199 21.7302C28.4212 21.3346 28.5272 20.9463 28.7273 20.605L39.7642 1.48959C40.0259 1.03667 40.4021 0.66059 40.8551 0.399119C41.3082 0.137648 41.822 0 42.3451 0C42.8682 0 43.3821 0.137648 43.8351 0.399119C44.2881 0.66059 44.6644 1.03667 44.926 1.48959L55.9629 20.605C56.163 20.9463 56.2691 21.3346 56.2703 21.7302C56.2716 22.1258 56.1679 22.5147 55.97 22.8573C55.7721 23.1998 55.4869 23.4838 55.1435 23.6803C54.8002 23.8768 54.4108 23.9788 54.0152 23.9759H54.0216ZM34.5736 19.4825H50.1295L42.3515 6.0086L34.5736 19.4825Z" fill="url(#paint0_linear_458_596)" transform="matrix(1, 0, 0, 1, 0, -2.220446049250313e-16)"/>
</svg>