<svg width="32" height="35" viewBox="0 0 32 35" fill="none" xmlns="http://www.w3.org/2000/svg">
<defs>
<linearGradient id="paint0_linear_3725_28989" x1="0.000771422" y1="17.4969" x2="31.2853" y2="17.4969" gradientUnits="userSpaceOnUse">
<stop offset="0.02" stop-color="#2ABCF1"/>
<stop offset="1" stop-color="#6A4DE3"/>
</linearGradient>
</defs>
<path d="M7.36234 14.1494C7.36234 13.8489 7.45309 13.5551 7.62311 13.3053C7.79313 13.0555 8.03477 12.8608 8.31747 12.7459C8.60017 12.631 8.91122 12.601 9.21126 12.6598C9.51129 12.7186 9.78684 12.8635 10.003 13.0761C10.2192 13.2887 10.3663 13.5596 10.4258 13.8543C10.4852 14.1491 10.4543 14.4546 10.3369 14.7321C10.2195 15.0096 10.021 15.2467 9.76638 15.4133C9.51179 15.58 9.21259 15.6687 8.90665 15.6683C8.49687 15.6677 8.10408 15.5075 7.81452 15.2227C7.52497 14.9379 7.36234 14.5519 7.36234 14.1494ZM6.83194 23.1457C5.61184 22.1622 4.49508 21.0611 3.49837 19.8589C4.51913 18.7452 5.62811 17.7126 6.8149 16.7709C6.87476 16.7225 6.92435 16.6631 6.96081 16.5959C6.99727 16.5287 7.01991 16.4551 7.02743 16.3794C7.03494 16.3036 7.02719 16.2271 7.00461 16.1543C6.98204 16.0815 6.94508 16.0137 6.89585 15.9549C6.84662 15.8961 6.78607 15.8474 6.71768 15.8116C6.64929 15.7758 6.57439 15.7536 6.49725 15.7462C6.42011 15.7388 6.34224 15.7464 6.26809 15.7686C6.19395 15.7908 6.12498 15.8271 6.06512 15.8754C4.89886 16.8041 3.80388 17.816 2.78905 18.9028C1.77087 17.3839 1.42793 16.0805 1.92211 15.2436C2.41628 14.4067 3.70711 14.0427 5.60715 14.1536C5.76264 14.1615 5.91503 14.1088 6.03109 14.0068C6.14716 13.9049 6.21749 13.762 6.22677 13.6093C6.23604 13.4567 6.18351 13.3066 6.08061 13.1918C5.97771 13.077 5.83279 13.0069 5.67744 12.9966C3.27471 12.8564 1.63028 13.4318 0.897537 14.6703C0.441699 15.4486 0.171178 16.8399 1.48757 19.0472C1.6388 19.3024 1.80921 19.5639 1.99666 19.8275C0.166917 22.0871 -0.450806 24.0412 0.333064 25.3739C0.925227 26.3802 2.20115 26.8928 4.07349 26.8928C4.77072 26.8879 5.46651 26.8299 6.15458 26.7192C6.30937 26.6953 6.44817 26.612 6.54045 26.4877C6.63273 26.3633 6.67092 26.208 6.64663 26.056C6.62234 25.9039 6.53755 25.7676 6.41092 25.6769C6.28429 25.5863 6.12618 25.5488 5.97139 25.5727C3.54736 25.9451 1.86672 25.6605 1.35763 24.7944C0.916706 24.0454 1.28095 22.6436 2.73154 20.7816C3.73914 21.9692 4.85809 23.0612 6.07364 24.0433C6.17953 24.1315 6.31396 24.1797 6.45279 24.1793C6.57427 24.1797 6.69291 24.1432 6.79252 24.0749C6.89212 24.0066 6.96784 23.9098 7.00931 23.7976C7.05079 23.6855 7.05601 23.5635 7.02427 23.4483C6.99252 23.3331 6.92536 23.2304 6.83194 23.1541V23.1457ZM8.54666 16.8064C8.46892 16.8059 8.39184 16.8205 8.31988 16.8494C8.24792 16.8783 8.18251 16.9209 8.12744 16.9748C8.07237 17.0287 8.02872 17.0928 7.99904 17.1634C7.96936 17.234 7.95422 17.3096 7.9545 17.386V17.4969C7.9545 19.0744 8.03118 20.6351 8.18029 22.1436C8.19455 22.2871 8.2626 22.4204 8.37124 22.5174C8.47988 22.6144 8.62135 22.6684 8.76819 22.6687H8.8257C8.98026 22.6533 9.12248 22.5789 9.22169 22.4615C9.32091 22.3441 9.36918 22.1931 9.35609 22.0411C9.21125 20.5765 9.14309 19.0451 9.14309 17.5052V17.3985C9.14481 17.3209 9.1306 17.2438 9.10129 17.1717C9.07198 17.0997 9.02818 17.0341 8.97251 16.9791C8.91684 16.924 8.85043 16.8805 8.77727 16.8512C8.7041 16.8219 8.62567 16.8074 8.54666 16.8085V16.8064ZM17.4163 21.2691C15.7292 22.198 13.9865 23.0259 12.1976 23.7483C12.0711 23.7995 11.9665 23.8923 11.9017 24.0108C11.8369 24.1292 11.816 24.266 11.8423 24.398C11.8687 24.5299 11.9408 24.6488 12.0463 24.7344C12.1519 24.8201 12.2844 24.8671 12.4213 24.8676C12.498 24.8672 12.5739 24.8523 12.6449 24.8237C14.4774 24.0832 16.2628 23.235 17.9914 22.2838C18.1191 22.2042 18.211 22.0797 18.2482 21.9358C18.2855 21.7919 18.2652 21.6394 18.1917 21.5097C18.1182 21.3799 17.9969 21.2827 17.8527 21.238C17.7085 21.1932 17.5524 21.2044 17.4163 21.2691ZM30.9594 8.00675C30.069 6.49411 27.6769 6.09869 24.0366 6.86443C22.6811 7.15796 21.348 7.54385 20.047 8.01931C19.8179 7.02179 19.5276 6.03878 19.1779 5.07562C17.9467 1.75534 16.3321 0 14.4981 0C11.2135 0 9.21125 5.58402 8.42951 10.8103C8.40691 10.9626 8.44684 11.1175 8.54051 11.2409C8.63419 11.3643 8.77394 11.4461 8.92901 11.4683C9.08408 11.4905 9.24179 11.4512 9.36742 11.3592C9.49305 11.2672 9.57633 11.13 9.59892 10.9776C10.4616 5.19696 12.4767 1.16116 14.4981 1.16116C15.7527 1.16116 17.0542 2.73238 18.0575 5.47104C18.408 6.44139 18.6969 7.4322 18.9223 8.43774C16.7382 9.30371 14.6197 10.3217 12.5832 11.484C12.2338 11.6932 11.876 11.8898 11.5181 12.1116C11.4518 12.1512 11.3941 12.2032 11.3483 12.2646C11.3025 12.3261 11.2694 12.3958 11.251 12.4699C11.2326 12.5439 11.2292 12.6207 11.2411 12.696C11.2529 12.7713 11.2797 12.8436 11.32 12.9087C11.3603 12.9738 11.4133 13.0305 11.4758 13.0755C11.5384 13.1206 11.6094 13.153 11.6848 13.1711C11.7601 13.1892 11.8384 13.1925 11.9151 13.1808C11.9917 13.1692 12.0653 13.1429 12.1316 13.1033C12.4831 12.8941 12.8324 12.6849 13.1732 12.4966C15.0996 11.3966 17.101 10.4284 19.163 9.5989C19.5927 11.9472 19.8235 14.3265 19.8531 16.7123C19.8554 16.8645 19.9185 17.0098 20.0289 17.1167C20.1393 17.2236 20.2882 17.2835 20.4432 17.2835H20.4538C20.6103 17.2802 20.7592 17.2164 20.8681 17.1059C20.9769 16.9954 21.0371 16.8472 21.0353 16.6935C21.0039 14.1711 20.7516 11.6561 20.2813 9.17628C25.3509 7.33517 29.1083 7.20545 29.9263 8.59675C30.3736 9.3583 29.9796 10.6575 28.8165 12.2518C27.5513 13.9736 25.517 15.9005 22.9268 17.7835C22.8646 17.829 22.8121 17.886 22.7723 17.9514C22.7325 18.0168 22.7062 18.0893 22.695 18.1647C22.6837 18.2401 22.6877 18.3169 22.7066 18.3908C22.7256 18.4646 22.7591 18.5341 22.8054 18.5953C22.8517 18.6564 22.9098 18.708 22.9764 18.747C23.043 18.7861 23.1168 18.8119 23.1935 18.823C23.2703 18.8341 23.3485 18.8302 23.4237 18.8116C23.4989 18.793 23.5697 18.76 23.6319 18.7145C26.3201 16.7479 28.4438 14.7394 29.7751 12.9171C30.8018 11.507 31.837 9.5194 30.9594 8.00675ZM23.666 21.2272C23.5473 21.1268 23.393 21.0767 23.2368 21.0881C23.0806 21.0995 22.9354 21.1714 22.8331 21.2879C22.7309 21.4044 22.6799 21.5561 22.6915 21.7095C22.7031 21.8629 22.7763 22.0055 22.8949 22.1059C26.516 25.1626 28.3479 28.2255 27.4661 29.7256C26.8569 30.7717 24.9398 31.0918 22.2069 30.6294C21.1852 30.4506 20.1774 30.2025 19.1907 29.8867C19.9381 27.7401 20.4446 25.5197 20.7009 23.265C20.7201 23.1124 20.6768 22.9586 20.5806 22.8373C20.4843 22.7161 20.3429 22.6374 20.1876 22.6185C20.0322 22.5996 19.8756 22.6422 19.7521 22.7367C19.6287 22.8313 19.5486 22.9701 19.5294 23.1227C19.2823 25.2984 18.7938 27.4409 18.0724 29.5122C16.0411 28.7712 14.0778 27.8613 12.204 26.7924C12.0689 26.7259 11.9131 26.7127 11.7684 26.7554C11.6237 26.7982 11.5011 26.8936 11.4257 27.0222C11.3503 27.1508 11.3278 27.3028 11.3628 27.4472C11.3978 27.5916 11.4877 27.7173 11.614 27.7987C13.5365 28.8946 15.5503 29.8283 17.6336 30.5897C17.5697 30.732 17.5058 30.87 17.4398 31.0081C16.5451 32.8346 15.5035 33.8388 14.5088 33.8388C13.0688 33.8388 11.5884 31.7801 10.5511 28.3322C10.529 28.2592 10.4924 28.1911 10.4435 28.1319C10.3947 28.0726 10.3344 28.0235 10.2661 27.9871C10.1979 27.9508 10.123 27.928 10.0458 27.9201C9.96863 27.9122 9.8906 27.9193 9.81619 27.941C9.74179 27.9627 9.67246 27.9986 9.61217 28.0466C9.55188 28.0946 9.50182 28.1538 9.46483 28.2209C9.42784 28.2879 9.40466 28.3614 9.3966 28.4372C9.38854 28.5131 9.39577 28.5897 9.41786 28.6628C10.6491 32.7488 12.4575 35 14.5088 35C15.9998 35 17.3844 33.7928 18.5048 31.5123C18.59 31.3387 18.6731 31.1567 18.754 30.9726C19.8176 31.3159 20.9045 31.5851 22.0067 31.7781C22.7908 31.9139 23.5854 31.9839 24.3817 31.9873C26.4095 31.9873 27.8367 31.4119 28.4885 30.301C29.709 28.213 27.9049 24.8195 23.6553 21.2272H23.666ZM18.1789 17.4027L17.8061 17.1935C16.0389 16.1858 14.1952 15.3136 12.2913 14.5846C12.1471 14.5381 11.9902 14.5477 11.8531 14.6116C11.7159 14.6754 11.6089 14.7886 11.5542 14.9277C11.4996 15.0668 11.5014 15.2212 11.5592 15.359C11.6171 15.4968 11.7267 15.6075 11.8653 15.6683C13.7117 16.3753 15.4993 17.2224 17.2118 18.2019L17.574 18.4111C17.6646 18.4649 17.7685 18.4931 17.8743 18.4927C18.008 18.4986 18.1397 18.4597 18.2479 18.3824C18.3561 18.3051 18.4343 18.1939 18.4697 18.0672C18.5051 17.9404 18.4956 17.8057 18.4428 17.6849C18.3899 17.5642 18.2969 17.4647 18.1789 17.4027ZM10.8152 25.3153C10.8152 25.0153 10.7246 24.7221 10.5549 24.4726C10.3852 24.2232 10.1441 24.0288 9.86187 23.914C9.57969 23.7992 9.26918 23.7691 8.96961 23.8276C8.67004 23.8862 8.39487 24.0306 8.1789 24.2428C7.96292 24.4549 7.81584 24.7252 7.75625 25.0194C7.69667 25.3136 7.72725 25.6186 7.84413 25.8958C7.96102 26.1729 8.15896 26.4098 8.41292 26.5765C8.66688 26.7432 8.96545 26.8321 9.27089 26.8321C9.68046 26.8321 10.0733 26.6723 10.3629 26.3879C10.6525 26.1034 10.8152 25.7176 10.8152 25.3153ZM21.996 19.9594C21.9964 19.6588 21.9061 19.365 21.7364 19.1149C21.5667 18.8649 21.3254 18.6698 21.0428 18.5546C20.7603 18.4393 20.4493 18.4089 20.1492 18.4673C19.8491 18.5256 19.5733 18.6701 19.3568 18.8825C19.1403 19.0948 18.9928 19.3655 18.933 19.6602C18.8732 19.9549 18.9037 20.2604 19.0206 20.538C19.1376 20.8157 19.3358 21.0531 19.5902 21.2201C19.8445 21.387 20.1436 21.4762 20.4496 21.4762C20.653 21.4762 20.8544 21.4368 21.0423 21.3602C21.2302 21.2836 21.4009 21.1713 21.5446 21.0298C21.6882 20.8883 21.802 20.7204 21.8795 20.5356C21.957 20.3509 21.9966 20.1529 21.996 19.9531V19.9594Z" fill="url(#paint0_linear_3725_28989)"/>
</svg>
