<svg width="20" height="15" viewBox="0 0 20 15" fill="none" xmlns="http://www.w3.org/2000/svg">
<path d="M8.5 7.5C8.5 9.49603 8.01354 11.2789 7.25323 12.5461C6.48696 13.8232 5.49801 14.5 4.5 14.5C3.50199 14.5 2.51304 13.8232 1.74677 12.5461C0.986464 11.2789 0.5 9.49603 0.5 7.5C0.5 5.50397 0.986464 3.72112 1.74677 2.45395C2.51304 1.17682 3.50199 0.5 4.5 0.5C5.49801 0.5 6.48696 1.17682 7.25323 2.45395C8.01354 3.72112 8.5 5.50397 8.5 7.5Z" stroke="#ABC0D3"/>
<circle cx="3" cy="11" r="2" fill="#ABC0D3"/>
<path d="M19.5 7.5C19.5 9.49603 19.0135 11.2789 18.2532 12.5461C17.487 13.8232 16.498 14.5 15.5 14.5C14.502 14.5 13.513 13.8232 12.7468 12.5461C11.9865 11.2789 11.5 9.49603 11.5 7.5C11.5 5.50397 11.9865 3.72112 12.7468 2.45395C13.513 1.17682 14.502 0.5 15.5 0.5C16.498 0.5 17.487 1.17682 18.2532 2.45395C19.0135 3.72112 19.5 5.50397 19.5 7.5Z" stroke="#ABC0D3"/>
<circle cx="14" cy="11" r="2" fill="#ABC0D3"/>
</svg>
