<?xml version="1.0" encoding="UTF-8"?>
<svg width="26" height="26" viewBox="0 0 26 26" fill="none" xmlns="http://www.w3.org/2000/svg">
<defs>
<linearGradient id="paint0_linear_3173_9890" x1="14.4443" y1="10.8329" x2="11.5554" y2="10.8329" gradientUnits="userSpaceOnUse">
<stop stop-color="#6A4DE3"/>
<stop offset="1" stop-color="#2279F1"/>
</linearGradient>
<linearGradient id="paint1_linear_3173_9890" x1="14.4443" y1="18.7784" x2="11.5554" y2="18.7784" gradientUnits="userSpaceOnUse">
<stop stop-color="#6A4DE3"/>
<stop offset="1" stop-color="#2279F1"/>
</linearGradient>
<linearGradient id="paint2_linear_3173_9890" x1="26" y1="13" x2="0" y2="13" gradientUnits="userSpaceOnUse">
<stop stop-color="#6A4DE3"/>
<stop offset="1" stop-color="#2279F1"/>
</linearGradient>
</defs>
<path d="M12.9999 5.77734C13.8666 5.77734 14.4443 6.35512 14.4443 7.22179V14.444C14.4443 15.3107 13.8666 15.8885 12.9999 15.8885C12.1332 15.8885 11.5554 15.3107 11.5554 14.444V7.22179C11.5554 6.35512 12.1332 5.77734 12.9999 5.77734Z" fill="url(#paint0_linear_3173_9890)"/>
<path d="M12.9999 20.2229C12.2021 20.2229 11.5554 19.5762 11.5554 18.7784C11.5554 17.9807 12.2021 17.334 12.9999 17.334C13.7976 17.334 14.4443 17.9807 14.4443 18.7784C14.4443 19.5762 13.7976 20.2229 12.9999 20.2229Z" fill="url(#paint1_linear_3173_9890)"/>
<path d="M13 0C20.2222 0 26 5.77778 26 13C26 15.6 25.1333 18.2 23.6889 20.3667L25.7111 23.8333C26 24.2667 26 24.8444 25.7111 25.2778C25.4222 25.7111 25.1333 26 24.5556 26H13C5.77778 26 0 20.2222 0 13C0 5.77778 5.77778 0 13 0ZM13 23.1111H21.9556L20.6556 20.9444C20.3667 20.3667 20.3667 19.7889 20.8 19.3556C22.2444 17.6222 23.1111 15.3111 23.1111 13C23.1111 7.36667 18.6333 2.88889 13 2.88889C7.36667 2.88889 2.88889 7.36667 2.88889 13C2.88889 18.6333 7.36667 23.1111 13 23.1111Z" fill="url(#paint2_linear_3173_9890)"/>
</svg>
