<svg width="25" height="13" viewBox="0 0 25 13" fill="none" xmlns="http://www.w3.org/2000/svg">
<path d="M15.9106 3.5188C14.9442 3.5188 14.1607 2.73109 14.1607 1.7594C14.1607 0.787709 14.9442 -4.39555e-07 15.9106 -3.97312e-07C16.877 -3.55069e-07 17.6604 0.787709 17.6604 1.7594C17.6604 2.73109 16.877 3.5188 15.9106 3.5188ZM15.9106 1.10138C15.5491 1.10138 15.2561 1.39599 15.2561 1.7594C15.2561 2.12281 15.5491 2.41741 15.9106 2.41741C16.272 2.41741 16.565 2.12281 16.565 1.7594C16.565 1.39599 16.272 1.10138 15.9106 1.10138Z" fill="white"/>
<path fill-rule="evenodd" clip-rule="evenodd" d="M11.1173 2.29699L14.582 2.29699L14.582 1.2218L10.4316 1.2218L8.10127 6.32454L9.07306 6.77321L11.1173 2.29699Z" fill="white"/>
<path d="M18.7621 13C17.7957 13 17.0123 12.2123 17.0123 11.2406C17.0123 10.2689 17.7957 9.4812 18.7621 9.4812C19.7286 9.4812 20.512 10.2689 20.512 11.2406C20.512 12.2123 19.7286 13 18.7621 13ZM18.7621 10.5826C18.4007 10.5826 18.1077 10.8772 18.1077 11.2406C18.1077 11.604 18.4007 11.8986 18.7621 11.8986C19.1236 11.8986 19.4166 11.604 19.4166 11.2406C19.4166 10.8772 19.1236 10.5826 18.7621 10.5826Z" fill="white"/>
<path fill-rule="evenodd" clip-rule="evenodd" d="M17.304 11.7293L13.5027 11.7293L11.3213 6.69856L12.3015 6.26886L14.2031 10.6541L17.304 10.6541L17.304 11.7293Z" fill="white"/>
<path d="M3.25664 9.74185C1.45805 9.74185 -3.61748e-07 8.27584 -2.827e-07 6.46742C-2.03651e-07 4.659 1.45805 3.19298 3.25664 3.19298C5.05523 3.19298 6.51328 4.659 6.51328 6.46742C6.51328 8.27584 5.05523 9.74185 3.25664 9.74185ZM3.25664 4.16796C1.99359 4.16796 0.969681 5.19746 0.969681 6.46742C0.96968 7.73737 1.99359 8.76687 3.25664 8.76687C4.51969 8.76687 5.5436 7.73737 5.5436 6.46742C5.5436 5.19746 4.5197 4.16796 3.25664 4.16796Z" fill="white"/>
<path fill-rule="evenodd" clip-rule="evenodd" d="M21.6413 4.0425L24.7521 6.02997C24.9062 6.12842 24.9997 6.29914 25 6.48272C25.0003 6.66629 24.9075 6.83735 24.7537 6.93638L21.6429 8.94014L21.0661 8.0348L22.6395 7.0213L5.9138 7.0213L5.9138 5.94611L22.6269 5.94612L21.0678 4.94998L21.6413 4.0425Z" fill="white"/>
</svg>
