<svg width="20" height="17" viewBox="0 0 20 17" fill="none" xmlns="http://www.w3.org/2000/svg">
<path d="M9.24907 11.2521C9.15861 11.0366 9.12406 11.0136 9.14541 11.1833C9.14464 11.2447 9.1337 11.3044 9.11259 11.3623C9.21666 11.2928 9.22706 11.2667 9.14379 11.284C9.09399 11.2884 9.04409 11.2911 8.99408 11.2919C8.90586 11.2941 8.77117 11.2621 8.68793 11.2814C8.51281 11.3222 8.68374 11.1712 8.69268 11.3227C8.68758 11.2362 8.66584 11.1513 8.67234 11.0623C8.67248 11.0078 8.68083 10.9544 8.6974 10.9021C8.7586 10.7607 8.72172 10.7658 8.58677 10.9176C8.58704 10.9188 8.88173 10.907 8.89475 10.9072C8.96328 10.9085 9.03168 10.9121 9.09995 10.9181C9.1775 10.9356 9.18983 10.9317 9.13695 10.9063C9.07602 10.8454 9.01508 10.7845 8.95415 10.7235C8.98967 10.7841 9.01008 10.862 9.04293 10.9256C9.34417 11.5084 10.2239 10.9935 9.92288 10.4112C9.84499 10.2605 9.81188 10.1258 9.6513 10.0264C9.51414 9.94148 9.35867 9.92783 9.20214 9.90981C8.87974 9.8727 8.45029 9.84115 8.15302 9.99182C7.5692 10.2877 7.51631 11.3682 7.82848 11.871C8.15074 12.39 9.16748 12.4517 9.66414 12.1812C10.2511 11.8614 10.3948 10.7258 9.76342 10.3721C9.19061 10.0512 8.67623 10.9312 9.24907 11.2521Z" fill="white"/>
<path d="M3.85025 3.25366C5.15497 4.71494 6.6682 5.90451 8.08661 7.24395C8.64747 7.77358 10.4389 9.32344 10.4832 10.0203C10.648 12.6123 7.46177 13.1042 5.93754 11.6001C4.76829 10.4462 3.60139 9.14385 2.47186 7.92885C1.6395 7.0335 1.10245 6.64863 1.89079 5.59376C2.6219 4.61546 3.68514 3.82605 4.47796 2.88113C4.89687 2.38185 4.17958 1.6573 3.75736 2.16052C3.027 3.03101 2.23379 3.83072 1.42276 4.62595C1.06155 4.98012 0.21301 5.52553 0.0505298 6.01069C-0.239028 6.87531 0.787331 7.56216 1.31444 8.16175C1.93194 8.86416 2.59937 9.48333 3.28374 10.1181C3.94318 10.7297 4.33774 11.4534 4.90536 12.1222C5.62199 12.9667 6.95913 13.5401 8.04944 13.645C10.1553 13.8476 12.0814 11.817 11.4659 9.74942C11.0781 8.44653 9.75319 7.41628 8.80721 6.52335C7.38944 5.18507 5.87508 3.99379 4.57085 2.53306C4.13314 2.04283 3.41446 2.76558 3.85025 3.25366Z" fill="white"/>
<path d="M4.06094 11.106C3.68993 13.334 4.33451 15.1516 6.63585 15.9905C8.99749 16.8514 10.966 14.2799 12.3867 12.783C13.3924 11.7233 14.6007 10.9167 15.636 9.87713C16.2056 9.30519 17.889 8.16208 17.9808 7.37347C18.0637 6.6605 17.2856 6.14637 16.8279 5.7497C15.5846 4.67219 14.2405 3.8036 13.1983 2.5085C13.0158 2.28167 12.6693 2.34689 12.4777 2.5085C11.1348 3.6417 10.1688 5.14293 8.71905 6.15521C8.18518 6.52799 8.69395 7.41184 9.2334 7.03516C10.7588 5.97001 11.7862 4.42074 13.1983 3.2291C12.9581 3.2291 12.7179 3.2291 12.4777 3.2291C13.5102 4.51211 15.0938 5.23449 16.1073 6.4703C16.7646 7.2718 16.6113 7.26437 15.9702 8.09306C15.446 8.77057 14.693 9.46666 14.0433 10.028C12.9585 10.9654 11.9526 11.8183 10.9285 12.8343C9.88708 13.8675 8.32624 15.594 6.57868 14.842C5.13478 14.2207 4.80668 12.7998 5.04362 11.377C5.15045 10.7354 4.16859 10.4596 4.06094 11.106Z" fill="white"/>
<path d="M13.6393 3.58365C14.5988 2.97336 15.3808 2.23341 16.0589 1.32127C15.7922 1.35564 15.5254 1.39002 15.2587 1.42439C15.9447 2.01714 16.6154 2.63396 17.3295 3.1929C17.9499 3.67847 18.6194 4.04613 19.0521 4.72893C19.0786 4.52311 19.1052 4.31728 19.1317 4.11146C18.4471 4.66158 17.7569 5.20394 17.0593 5.73749C16.5454 6.13059 17.0524 7.01612 17.5737 6.61744C18.3403 6.03108 19.1 5.43665 19.8523 4.83206C20.0208 4.69665 20.043 4.38976 19.932 4.21458C19.557 3.62274 19.0754 3.22261 18.5222 2.80872C17.6386 2.1477 16.8144 1.42539 15.9793 0.703792C15.7107 0.471721 15.3836 0.531691 15.179 0.806917C14.6049 1.57904 13.9377 2.18676 13.125 2.7037C12.5732 3.05469 13.0838 3.93702 13.6393 3.58365Z" fill="white"/>
<path d="M17.6536 3.20611C17.4047 3.4067 17.1558 3.60728 16.907 3.80787C16.6925 3.98068 16.727 4.34854 16.907 4.52847C17.1189 4.74039 17.4126 4.70172 17.6276 4.52847C17.8764 4.32788 18.1253 4.1273 18.3742 3.92671C18.5886 3.7539 18.5541 3.38604 18.3742 3.20611C18.1623 2.99419 17.8686 3.03286 17.6536 3.20611Z" fill="white"/>
<path d="M15.9732 1.77927C15.7774 1.94784 15.5892 2.12381 15.4079 2.30779C14.947 2.77531 15.6672 3.4964 16.1285 3.02839C16.3098 2.84441 16.498 2.66844 16.6938 2.49987C16.9024 2.32019 16.8782 1.96366 16.6938 1.77927C16.4869 1.57241 16.1823 1.59915 15.9732 1.77927Z" fill="white"/>
</svg>
