<svg width="112" height="104" viewBox="0 0 112 104" fill="none" xmlns="http://www.w3.org/2000/svg">
<path d="M105.644 0.214844L62.3149 32.3577L70.3721 13.4148L105.644 0.214844Z" fill="#E17726"/>
<path fill-rule="evenodd" clip-rule="evenodd" d="M105.83 0.111926C105.881 0.205734 105.855 0.322794 105.769 0.386418L62.4408 32.5293C62.3632 32.5869 62.2565 32.5854 62.1806 32.5255C62.1046 32.4656 62.0781 32.3623 62.116 32.2733L70.1731 13.3305C70.1961 13.2764 70.2402 13.2342 70.2952 13.2136L105.567 0.0136256C105.667 -0.0238034 105.779 0.0181179 105.83 0.111926ZM70.5315 13.5828L62.8192 31.715L104.294 0.947683L70.5315 13.5828Z" fill="#E17726"/>
<path d="M5.69922 0.214844L48.6421 32.6577L40.9707 13.4148L5.69922 0.214844Z" fill="#E27625"/>
<path fill-rule="evenodd" clip-rule="evenodd" d="M5.50991 0.111103C5.56117 0.0178309 5.67313 -0.0236793 5.77281 0.013625L41.0442 13.2136C41.1008 13.2348 41.1458 13.2789 41.1682 13.335L48.8396 32.5778C48.8752 32.6672 48.847 32.7693 48.7705 32.8276C48.6941 32.8859 48.5881 32.8861 48.5114 32.8282L5.56853 0.385294C5.48361 0.321137 5.45865 0.204375 5.50991 0.111103ZM7.00227 0.93134L48.1572 32.0235L40.8052 13.5818L7.00227 0.93134Z" fill="#E27625"/>
<path d="M90.042 74.7434L78.5134 92.4006L103.199 99.2148L110.271 75.1291L90.042 74.7434Z" fill="#E27625"/>
<path fill-rule="evenodd" clip-rule="evenodd" d="M89.863 74.6267C89.9034 74.5649 89.9727 74.5282 90.0465 74.5296L110.275 74.9153C110.342 74.9166 110.404 74.9489 110.444 75.0028C110.483 75.0566 110.495 75.1258 110.477 75.1899L103.405 99.2756C103.372 99.3879 103.255 99.453 103.143 99.4218L78.4568 92.6075C78.3909 92.5893 78.3376 92.5408 78.3134 92.4768C78.2892 92.4128 78.297 92.3411 78.3344 92.2838L89.863 74.6267ZM90.157 74.9603L78.8537 92.2725L103.053 98.9526L109.986 75.3384L90.157 74.9603Z" fill="#E27625"/>
<path d="M1.11304 75.1291L8.14161 99.2148L32.7845 92.4006L21.2988 74.7434L1.11304 75.1291Z" fill="#E27625"/>
<path fill-rule="evenodd" clip-rule="evenodd" d="M21.2951 74.5296C21.369 74.5282 21.4385 74.565 21.4788 74.627L32.9645 92.2841C33.0018 92.3414 33.0095 92.413 32.9853 92.4769C32.9611 92.5408 32.9079 92.5893 32.842 92.6075L8.19914 99.4218C8.08622 99.453 7.96915 99.3878 7.93633 99.2753L0.907751 75.1896C0.889057 75.1255 0.901275 75.0564 0.9408 75.0026C0.980324 74.9489 1.04264 74.9166 1.10936 74.9153L21.2951 74.5296ZM1.39764 75.3384L8.28855 98.9524L32.4457 92.2725L21.1844 74.9603L1.39764 75.3384Z" fill="#E27625"/>
<path d="M31.4568 44.9137L24.5996 55.2851L49.0282 56.3994L48.2139 30.0422L31.4568 44.9137Z" fill="#E27625"/>
<path fill-rule="evenodd" clip-rule="evenodd" d="M48.2979 29.8459C48.3743 29.8788 48.4247 29.9529 48.4273 30.036L49.2416 56.3932C49.2434 56.4528 49.2203 56.5106 49.1778 56.5524C49.1353 56.5943 49.0772 56.6166 49.0176 56.6139L24.589 55.4996C24.512 55.4961 24.4428 55.4514 24.4078 55.3827C24.3728 55.3139 24.3775 55.2317 24.4201 55.1673L31.2772 44.7959C31.2875 44.7804 31.2998 44.7662 31.3137 44.7538L48.0709 29.8824C48.1331 29.8272 48.2216 29.813 48.2979 29.8459ZM31.6192 45.0557L24.9858 55.0887L48.8061 56.1752L48.0131 30.5067L31.6192 45.0557Z" fill="#E27625"/>
<path d="M79.8842 44.9146L62.8699 29.7432L62.3127 56.4003L86.7413 55.286L79.8842 44.9146Z" fill="#E27625"/>
<path fill-rule="evenodd" clip-rule="evenodd" d="M62.7847 29.5471C62.8614 29.5137 62.9505 29.528 63.0129 29.5836L80.0272 44.7551C80.041 44.7674 80.0532 44.7814 80.0633 44.7968L86.9205 55.1683C86.963 55.2326 86.9677 55.3149 86.9327 55.3836C86.8978 55.4524 86.8286 55.497 86.7515 55.5005L62.3229 56.6148C62.2637 56.6175 62.206 56.5955 62.1635 56.5541C62.1211 56.5127 62.0977 56.4556 62.0989 56.3963L62.6561 29.7391C62.6578 29.6555 62.7081 29.5805 62.7847 29.5471ZM63.0748 30.2131L62.5322 56.1762L86.3547 55.0896L79.7212 45.0564L63.0748 30.2131Z" fill="#E27625"/>
<path d="M32.7844 92.3998L47.5701 85.2427L34.8416 75.2998L32.7844 92.3998Z" fill="#E27625"/>
<path fill-rule="evenodd" clip-rule="evenodd" d="M34.7588 75.1024C34.8302 75.0727 34.912 75.0838 34.9729 75.1314L47.7015 85.0742C47.7598 85.1198 47.7905 85.1922 47.7827 85.2658C47.7748 85.3394 47.7296 85.4037 47.663 85.436L32.8772 92.5931C32.8067 92.6272 32.7232 92.6202 32.6594 92.5747C32.5956 92.5291 32.5618 92.4524 32.5711 92.3746L34.6283 75.2746C34.6375 75.1979 34.6874 75.132 34.7588 75.1024ZM35.0084 75.7029L33.0435 92.0365L47.1665 85.2001L35.0084 75.7029Z" fill="#E27625"/>
<path d="M63.7705 85.2427L78.5134 92.3998L76.4991 75.2998L63.7705 85.2427Z" fill="#E27625"/>
<path fill-rule="evenodd" clip-rule="evenodd" d="M76.582 75.1025C76.6535 75.1323 76.7033 75.1983 76.7123 75.2752L78.7266 92.3752C78.7358 92.4529 78.7018 92.5295 78.638 92.5749C78.5741 92.6202 78.4907 92.6272 78.4202 92.593L63.6773 85.4359C63.6108 85.4035 63.5656 85.3392 63.5578 85.2657C63.55 85.1921 63.5807 85.1197 63.639 85.0742L76.3676 75.1314C76.4286 75.0837 76.5106 75.0727 76.582 75.1025ZM64.1737 85.2004L78.2552 92.0365L76.3313 75.7036L64.1737 85.2004Z" fill="#E27625"/>
<path d="M78.5124 92.3998L63.7695 85.2427L64.9695 94.8427L64.841 98.9141L78.5124 92.3998Z" fill="#D5BFB2"/>
<path fill-rule="evenodd" clip-rule="evenodd" d="M63.6452 85.0689C63.709 85.0231 63.7928 85.016 63.8635 85.0503L78.6064 92.2075C78.6805 92.2434 78.7274 92.3187 78.7271 92.401C78.7268 92.4834 78.6793 92.5583 78.605 92.5937L64.9336 99.108C64.8661 99.1401 64.7867 99.1348 64.7242 99.0939C64.6616 99.053 64.6248 98.9825 64.6272 98.9078L64.7553 94.8531L63.5573 85.2697C63.5476 85.1917 63.5813 85.1147 63.6452 85.0689ZM64.0316 85.6083L65.1826 94.8165C65.184 94.8276 65.1845 94.8387 65.1841 94.8499L65.0667 98.5698L78.0184 92.3984L64.0316 85.6083Z" fill="#D5BFB2"/>
<path d="M32.7834 92.3998L46.4977 98.9141L46.412 94.8427L47.5692 85.2427L32.7834 92.3998Z" fill="#D5BFB2"/>
<path fill-rule="evenodd" clip-rule="evenodd" d="M47.6951 85.0687C47.7588 85.1142 47.7927 85.1909 47.7833 85.2687L46.628 94.8537L46.7134 98.91C46.7149 98.9843 46.6779 99.0541 46.6155 99.0944C46.5531 99.1348 46.4743 99.14 46.4072 99.1081L32.6929 92.5938C32.6184 92.5584 32.5709 92.4835 32.5706 92.401C32.5703 92.3186 32.6173 92.2433 32.6915 92.2074L47.4772 85.0502C47.5477 85.0161 47.6313 85.0232 47.6951 85.0687ZM33.2804 92.3984L46.2776 98.5721L46.1992 94.8476C46.199 94.8375 46.1995 94.8275 46.2007 94.8175L47.3109 85.6069L33.2804 92.3984Z" fill="#D5BFB2"/>
<path d="M46.7579 68.9578L34.5007 65.3578L43.1579 61.3721L46.7579 68.9578Z" fill="#233447"/>
<path fill-rule="evenodd" clip-rule="evenodd" d="M43.0677 61.1769C43.1743 61.1278 43.3006 61.1736 43.3509 61.2797L46.9509 68.8654C46.9871 68.9417 46.9751 69.0322 46.9203 69.0964C46.8655 69.1606 46.778 69.1867 46.6969 69.1629L34.4398 65.5629C34.3541 65.5377 34.293 65.462 34.2865 65.3729C34.28 65.2838 34.3294 65.2 34.4106 65.1626L43.0677 61.1769ZM35.1092 65.3128L46.3586 68.6168L43.0545 61.6548L35.1092 65.3128Z" fill="#233447"/>
<path d="M64.5857 68.9578L68.1857 61.3721L76.8857 65.3578L64.5857 68.9578Z" fill="#233447"/>
<path fill-rule="evenodd" clip-rule="evenodd" d="M67.9913 61.2797C68.0416 61.1738 68.1676 61.1279 68.2741 61.1767L76.9741 65.1625C77.0555 65.1997 77.1051 65.2836 77.0986 65.3728C77.0921 65.462 77.0309 65.5378 76.9451 65.5629L64.6451 69.1629C64.5641 69.1866 64.4767 69.1606 64.4219 69.0963C64.3671 69.0321 64.3551 68.9417 64.3913 68.8654L67.9913 61.2797ZM68.2878 61.6544L64.9834 68.6174L76.2736 65.3129L68.2878 61.6544Z" fill="#233447"/>
<path d="M32.7865 92.4006L34.9294 74.7434L21.3008 75.1291L32.7865 92.4006Z" fill="#CC6228"/>
<path fill-rule="evenodd" clip-rule="evenodd" d="M35.0872 74.5995C35.1292 74.6456 35.149 74.7077 35.1415 74.7696L32.9987 92.4268C32.9879 92.5159 32.9227 92.5888 32.8354 92.6095C32.7481 92.6302 32.6572 92.5943 32.6075 92.5196L21.1218 75.2482C21.0787 75.1833 21.0741 75.1002 21.1099 75.031C21.1458 74.9618 21.2163 74.9175 21.2942 74.9153L34.9227 74.5296C34.9851 74.5279 35.0451 74.5534 35.0872 74.5995ZM21.6927 75.3328L32.6431 91.7992L34.6861 74.9651L21.6927 75.3328Z" fill="#CC6228"/>
<path d="M76.415 74.7434L78.5151 92.4006L90.0436 75.1291L76.415 74.7434Z" fill="#CC6228"/>
<path fill-rule="evenodd" clip-rule="evenodd" d="M76.256 74.5993C76.2981 74.5533 76.358 74.5279 76.4203 74.5296L90.0489 74.9153C90.1268 74.9175 90.1974 74.9619 90.2332 75.0312C90.269 75.1004 90.2643 75.1837 90.2211 75.2485L78.6925 92.5199C78.6427 92.5946 78.5516 92.6303 78.4643 92.6094C78.3771 92.5885 78.3121 92.5154 78.3015 92.4263L76.2015 74.7691C76.1941 74.7073 76.214 74.6453 76.256 74.5993ZM76.6563 74.9651L78.6584 91.799L89.6495 75.3328L76.6563 74.9651Z" fill="#CC6228"/>
<path d="M86.7435 55.2866L62.3149 56.4009L64.5864 68.9581L68.1864 61.3723L76.8864 65.3581L86.7435 55.2866Z" fill="#CC6228"/>
<path fill-rule="evenodd" clip-rule="evenodd" d="M86.9393 55.1983C86.9752 55.2786 86.9584 55.3728 86.8968 55.4357L77.0397 65.5071C76.9765 65.5717 76.8795 65.5897 76.7973 65.5521L68.2895 61.6544L64.7801 69.0491C64.7402 69.1332 64.6506 69.1819 64.5583 69.1697C64.4661 69.1574 64.3923 69.087 64.3757 68.9954L62.1043 56.4383C62.0933 56.3774 62.109 56.3148 62.1476 56.2665C62.1861 56.2182 62.2436 56.1889 62.3054 56.186L86.7339 55.0718C86.8219 55.0677 86.9033 55.1179 86.9393 55.1983ZM62.5696 56.603L64.6788 68.2632L67.993 61.2797C68.0432 61.1738 68.1692 61.1279 68.2758 61.1767L76.8388 65.0997L86.2101 55.5247L62.5696 56.603Z" fill="#CC6228"/>
<path d="M34.5006 65.3581L43.1577 61.3723L46.7577 68.9581L49.0292 56.4009L24.6006 55.2866L34.5006 65.3581Z" fill="#CC6228"/>
<path fill-rule="evenodd" clip-rule="evenodd" d="M24.4041 55.1985C24.44 55.118 24.5215 55.0677 24.6096 55.0718L49.0381 56.186C49.0999 56.1889 49.1574 56.2182 49.1959 56.2665C49.2344 56.3148 49.2502 56.3774 49.2392 56.4383L46.9678 68.9954C46.9512 69.087 46.8774 69.1574 46.7852 69.1697C46.6929 69.1819 46.6033 69.1332 46.5634 69.0491L43.0542 61.6548L34.5894 65.5519C34.5073 65.5897 34.4103 65.5719 34.347 65.5075L24.447 55.436C24.3852 55.3732 24.3682 55.279 24.4041 55.1985ZM25.1351 55.5247L34.547 65.0996L43.0673 61.1769C43.1739 61.1278 43.3002 61.1736 43.3505 61.2797L46.6647 68.2632L48.7739 56.603L25.1351 55.5247Z" fill="#CC6228"/>
<path d="M24.6006 55.2866L34.8435 75.3009L34.5006 65.3581L24.6006 55.2866Z" fill="#E27525"/>
<path fill-rule="evenodd" clip-rule="evenodd" d="M24.4744 55.112C24.5603 55.0501 24.6784 55.0601 24.7526 55.1356L34.6526 65.207C34.6902 65.2453 34.7121 65.2963 34.714 65.3499L35.0568 75.2927C35.0603 75.3931 34.9936 75.4823 34.8965 75.5075C34.7993 75.5327 34.6976 75.4871 34.6519 75.3977L24.409 55.3834C24.3608 55.2892 24.3886 55.1739 24.4744 55.112ZM25.4283 56.4344L34.5954 74.3466L34.2885 65.448L25.4283 56.4344Z" fill="#E27525"/>
<path d="M76.8869 65.3581L76.5012 75.3009L86.7441 55.2866L76.8869 65.3581Z" fill="#E27525"/>
<path fill-rule="evenodd" clip-rule="evenodd" d="M86.8685 55.1119C86.9544 55.1738 86.9823 55.2892 86.934 55.3834L76.6912 75.3977C76.6454 75.4873 76.5435 75.5329 76.4462 75.5074C76.3489 75.482 76.2824 75.3923 76.2863 75.2918L76.672 65.3489C76.6741 65.2958 76.6958 65.2454 76.733 65.2074L86.5901 55.1359C86.6642 55.0602 86.7825 55.05 86.8685 55.1119ZM77.0971 65.4481L76.7522 74.3378L85.9101 56.4435L77.0971 65.4481Z" fill="#E27525"/>
<path d="M49.0292 56.4006L46.7578 68.9578L49.6292 83.7864L50.2721 64.2435L49.0292 56.4006Z" fill="#E27525"/>
<path fill-rule="evenodd" clip-rule="evenodd" d="M49.032 56.1868C49.1365 56.1879 49.2249 56.2643 49.2413 56.3675L50.4842 64.2104C50.4863 64.2238 50.4871 64.2374 50.4867 64.251L49.8438 83.7938C49.8402 83.9028 49.7553 83.9918 49.6466 84.0004C49.5379 84.009 49.44 83.9346 49.4193 83.8275L46.5479 68.9989C46.5428 68.9729 46.5426 68.9461 46.5474 68.9201L48.8188 56.3629C48.8374 56.2601 48.9275 56.1856 49.032 56.1868ZM46.9762 68.9569L49.4781 81.8768L50.0577 64.2573L49.0157 57.6821L46.9762 68.9569Z" fill="#E27525"/>
<path d="M62.3145 56.4006L61.1145 64.2006L61.7145 83.7864L64.5859 68.9578L62.3145 56.4006Z" fill="#E27525"/>
<path fill-rule="evenodd" clip-rule="evenodd" d="M62.3121 56.1868C62.4168 56.1854 62.5071 56.2599 62.5258 56.3629L64.7972 68.9201C64.8019 68.9461 64.8018 68.9729 64.7967 68.9989L61.9253 83.8275C61.9045 83.9347 61.8065 84.0091 61.6977 84.0004C61.5889 83.9916 61.5041 83.9025 61.5007 83.7933L60.9007 64.2076C60.9003 64.1945 60.9011 64.1814 60.9031 64.1685L62.1031 56.3685C62.119 56.265 62.2074 56.1882 62.3121 56.1868ZM62.332 57.6993L61.3297 64.2142L61.8702 81.8577L64.3683 68.9569L62.332 57.6993Z" fill="#E27525"/>
<path d="M64.586 68.9572L61.7146 83.7858L63.7717 85.2429L76.5003 75.3L76.886 65.3572L64.586 68.9572Z" fill="#F5841F"/>
<path fill-rule="evenodd" clip-rule="evenodd" d="M77.0163 65.1884C77.0707 65.2308 77.1013 65.2968 77.0986 65.3657L76.7129 75.3085C76.7105 75.3715 76.6804 75.4303 76.6307 75.4691L63.9021 85.4119C63.8275 85.4702 63.7236 85.4726 63.6464 85.4179L61.5892 83.9608C61.5205 83.9122 61.4867 83.8278 61.5027 83.7452L64.3741 68.9166C64.3894 68.8379 64.4473 68.7742 64.5243 68.7517L76.8243 65.1517C76.8905 65.1323 76.9619 65.146 77.0163 65.1884ZM64.7701 69.1263L61.9497 83.691L63.764 84.976L76.2885 75.1926L76.6588 65.6467L64.7701 69.1263Z" fill="#F5841F"/>
<path d="M34.5007 65.3572L34.8436 75.3L47.5722 85.2429L49.6293 83.7858L46.7579 68.9572L34.5007 65.3572Z" fill="#F5841F"/>
<path fill-rule="evenodd" clip-rule="evenodd" d="M34.3688 65.188C34.4232 65.1459 34.4945 65.1324 34.5606 65.1518L46.8177 68.7518C46.8946 68.7743 46.9525 68.8379 46.9677 68.9166L49.8391 83.7452C49.8551 83.8278 49.8213 83.9122 49.7526 83.9608L47.6955 85.4179C47.6182 85.4726 47.5143 85.4702 47.4397 85.4119L34.7111 75.4691C34.6612 75.4301 34.6311 75.3709 34.6289 75.3076L34.286 65.3647C34.2836 65.296 34.3145 65.2302 34.3688 65.188ZM34.7246 65.6466L35.0537 75.1929L47.5779 84.976L49.3921 83.691L46.5718 69.1262L34.7246 65.6466Z" fill="#F5841F"/>
<path d="M64.8438 98.9149L64.9724 94.8435L63.8581 93.9006H47.4866L46.4152 94.8435L46.5009 98.9149L32.7866 92.4006L37.5866 96.3435L47.3152 103.072H63.9866L73.7581 96.3435L78.5152 92.4006L64.8438 98.9149Z" fill="#C0AC9D"/>
<path fill-rule="evenodd" clip-rule="evenodd" d="M32.6039 92.2862C32.6619 92.1949 32.779 92.1611 32.8768 92.2075L46.2776 98.5729L46.1992 94.8484C46.1979 94.7853 46.2245 94.7248 46.2719 94.6831L47.3433 93.7402C47.3824 93.7058 47.4327 93.6868 47.4849 93.6868H63.8563C63.907 93.6868 63.956 93.7048 63.9947 93.7375L65.109 94.6803C65.1589 94.7226 65.1868 94.7853 65.1848 94.8507L65.0673 98.5707L78.4213 92.2076C78.5189 92.1611 78.6358 92.1946 78.694 92.2857C78.7522 92.3769 78.7334 92.4971 78.6502 92.5661L73.893 96.5089C73.8881 96.513 73.8831 96.5168 73.8778 96.5204L64.1064 103.249C64.0706 103.274 64.0283 103.287 63.9849 103.287H47.3134C47.2699 103.287 47.2274 103.274 47.1915 103.249L37.463 96.5202C37.4581 96.5168 37.4534 96.5133 37.4488 96.5095L32.6488 92.5667C32.5652 92.498 32.5459 92.3776 32.6039 92.2862ZM34.2701 93.3438L37.714 96.1727L47.3803 102.858H63.9182L73.6269 96.1729L77.0498 93.3358L64.9342 99.1088C64.8667 99.141 64.7873 99.1356 64.7248 99.0947C64.6622 99.0538 64.6255 98.9833 64.6278 98.9086L64.7531 94.9406L63.7778 94.1154H47.5657L46.6298 94.939L46.7134 98.9109C46.7149 98.9851 46.6779 99.0549 46.6155 99.0953C46.5532 99.1356 46.4743 99.1408 46.4072 99.1089L34.2701 93.3438Z" fill="#C0AC9D"/>
<path d="M63.7715 85.243L61.7143 83.7859H49.6286L47.5714 85.243L46.4143 94.843L47.4857 93.9002H63.8572L64.9715 94.843L63.7715 85.243Z" fill="#161616"/>
<path fill-rule="evenodd" clip-rule="evenodd" d="M49.5061 83.6105C49.5423 83.5848 49.5856 83.571 49.63 83.571H61.7157C61.7601 83.571 61.8034 83.5848 61.8396 83.6105L63.8967 85.0676C63.9458 85.1024 63.978 85.1562 63.9855 85.2159L65.1855 94.8159C65.1964 94.9035 65.1525 94.9888 65.0749 95.0309C64.9973 95.0729 64.9018 95.0631 64.8344 95.0061L63.7801 94.1139H47.568L46.5573 95.0033C46.4906 95.062 46.3945 95.0735 46.3159 95.0321C46.2373 94.9907 46.1923 94.9051 46.203 94.8168L47.3601 85.2168C47.3673 85.1568 47.3996 85.1026 47.449 85.0676L49.5061 83.6105ZM49.6982 83.9996L47.7742 85.3624L46.6956 94.3107L47.3456 93.7388C47.3847 93.7043 47.435 93.6853 47.4871 93.6853H63.8586C63.9093 93.6853 63.9583 93.7033 63.997 93.736L64.6921 94.3242L63.5719 85.3628L61.6475 83.9996H49.6982Z" fill="#161616"/>
<path d="M107.486 34.4577L111.129 16.7148L105.643 0.214844L63.7715 31.2863L79.8858 44.9149L102.643 51.5577L107.657 45.6863L105.472 44.1006L108.943 40.9291L106.286 38.872L109.757 36.2149L107.486 34.4577Z" fill="#763E1A"/>
<path fill-rule="evenodd" clip-rule="evenodd" d="M105.707 0.00993748C105.772 0.0306195 105.824 0.0814748 105.846 0.146683L111.331 16.6467C111.343 16.6824 111.346 16.7206 111.338 16.7574L107.722 34.3694L109.888 36.0448C109.94 36.0855 109.971 36.1483 109.971 36.2149C109.971 36.2814 109.94 36.344 109.887 36.3845L106.637 38.8724L109.074 40.7591C109.124 40.7979 109.154 40.8567 109.156 40.9199C109.159 40.983 109.134 41.0441 109.087 41.0868L105.81 44.0809L107.783 45.5123C107.831 45.5474 107.862 45.6011 107.869 45.6605C107.877 45.7198 107.858 45.7794 107.82 45.8249L102.805 51.6963C102.751 51.7605 102.663 51.7865 102.582 51.7629L79.8252 45.12C79.7964 45.1116 79.7697 45.0973 79.7468 45.0779L63.6325 31.4493C63.5826 31.4071 63.5547 31.3443 63.5567 31.2789C63.5588 31.2135 63.5907 31.1526 63.6432 31.1136L105.515 0.0422059C105.57 0.00125603 105.641 -0.0107445 105.707 0.00993748ZM64.1157 31.2967L79.9889 44.7213L102.569 51.3126L107.343 45.723L105.345 44.2735C105.293 44.2356 105.261 44.1764 105.257 44.1121C105.253 44.0478 105.279 43.9853 105.326 43.9418L108.61 40.9421L106.154 39.0409C106.101 39.0002 106.071 38.9374 106.071 38.8709C106.071 38.8044 106.102 38.7417 106.155 38.7013L109.405 36.2134L107.354 34.6266C107.289 34.5766 107.259 34.4941 107.275 34.4141L110.907 16.7274L105.532 0.562735L64.1157 31.2967Z" fill="#763E1A"/>
<path d="M0.213867 16.7148L3.89959 34.4577L1.54244 36.2149L5.05673 38.872L2.39958 40.9291L5.87101 44.1006L3.6853 45.6863L8.69959 51.5577L31.4567 44.9149L47.571 31.2863L5.69959 0.214844L0.213867 16.7148Z" fill="#763E1A"/>
<path fill-rule="evenodd" clip-rule="evenodd" d="M5.63551 0.00993747C5.70104 -0.0107445 5.77252 0.00125605 5.8277 0.042206L47.6991 31.1136C47.7517 31.1526 47.7835 31.2135 47.7856 31.2789C47.7877 31.3443 47.7598 31.4071 47.7098 31.4493L31.5955 45.0779C31.5727 45.0973 31.546 45.1116 31.5172 45.12L8.76005 51.7629C8.6791 51.7865 8.59182 51.7605 8.53706 51.6963L3.52277 45.8249C3.48395 45.7794 3.46588 45.7198 3.47293 45.6605C3.47998 45.6011 3.5115 45.5474 3.55988 45.5123L5.53283 44.0809L2.25547 41.0868C2.20878 41.0441 2.18332 40.983 2.18589 40.9199C2.18847 40.8567 2.21882 40.7979 2.26882 40.7591L4.70451 38.8735L1.41362 36.3852C1.35985 36.3446 1.32834 36.281 1.32857 36.2136C1.3288 36.1462 1.36074 36.0828 1.41479 36.0425L3.66242 34.367L0.00447896 16.7579C-0.00320382 16.7209 -0.000973574 16.6825 0.0109437 16.6467L5.49666 0.146683C5.51834 0.0814747 5.56998 0.0306195 5.63551 0.00993747ZM5.80997 0.562734L0.435822 16.7272L4.10981 34.4136C4.12676 34.4952 4.09488 34.5792 4.02808 34.629L1.89976 36.2155L5.18638 38.7005C5.23961 38.7408 5.27105 38.8035 5.27143 38.8702C5.27181 38.9369 5.24109 39 5.18833 39.0409L2.73254 40.9421L6.01596 43.9418C6.06351 43.9853 6.089 44.0478 6.08538 44.1121C6.08175 44.1764 6.0494 44.2356 5.99726 44.2735L3.99931 45.723L8.77297 51.3126L31.3535 44.7213L47.2266 31.2967L5.80997 0.562734Z" fill="#763E1A"/>
<path d="M102.642 51.5579L79.8847 44.915L86.7419 55.2865L76.499 75.3008L90.0419 75.1293H110.27L102.642 51.5579Z" fill="#F5841F"/>
<path fill-rule="evenodd" clip-rule="evenodd" d="M79.7137 44.7871C79.767 44.7147 79.8599 44.6834 79.9462 44.7085L102.703 51.3514C102.771 51.3713 102.825 51.4236 102.847 51.4911L110.476 75.0626C110.497 75.1278 110.485 75.1992 110.445 75.2546C110.405 75.31 110.34 75.3428 110.272 75.3428H90.0433L76.5031 75.5143C76.428 75.5152 76.3579 75.4768 76.3183 75.4129C76.2787 75.3491 76.2754 75.2692 76.3097 75.2024L86.4955 55.2995L79.7074 45.0324C79.6578 44.9574 79.6603 44.8595 79.7137 44.7871ZM80.3873 45.2838L86.922 55.1675C86.9647 55.232 86.9693 55.3145 86.934 55.3833L76.8531 75.0812L90.0433 74.9142L109.977 74.9143L102.474 51.731L80.3873 45.2838Z" fill="#F5841F"/>
<path d="M31.4569 44.915L8.69973 51.5579L1.11401 75.1293H21.2997L34.8426 75.3008L24.5997 55.2865L31.4569 44.915Z" fill="#F5841F"/>
<path fill-rule="evenodd" clip-rule="evenodd" d="M31.6288 44.7871C31.6822 44.8595 31.6847 44.9574 31.6351 45.0324L24.8469 55.2995L35.0328 75.2024C35.067 75.2692 35.0637 75.3491 35.0241 75.4129C34.9845 75.4768 34.9144 75.5152 34.8393 75.5143L21.2992 75.3428H1.11346C1.04497 75.3428 0.980607 75.3101 0.940274 75.2547C0.89994 75.1994 0.888493 75.1281 0.909474 75.0629L8.49519 51.4915C8.51697 51.4238 8.57089 51.3713 8.63913 51.3514L31.3963 44.7085C31.4826 44.6834 31.5754 44.7147 31.6288 44.7871ZM8.86834 51.731L1.40753 74.9143H21.3019L34.4894 75.0812L24.4084 55.3833C24.3732 55.3145 24.3778 55.232 24.4204 55.1675L30.9551 45.2838L8.86834 51.731Z" fill="#F5841F"/>
<path d="M62.3143 56.4005L63.7714 31.2862L70.3714 13.4148H40.9714L47.5714 31.2862L49.0286 56.4005L49.5857 64.2862L49.6286 83.7862H61.7143L61.7572 64.2862L62.3143 56.4005Z" fill="#F5841F"/>
<path fill-rule="evenodd" clip-rule="evenodd" d="M40.7951 13.2927C40.8351 13.2352 40.9008 13.2009 40.9709 13.2009H70.3709C70.441 13.2009 70.5066 13.2352 70.5467 13.2927C70.5868 13.3502 70.5962 13.4237 70.5719 13.4894L63.983 31.3309L62.5277 56.4134L62.5275 56.416L61.9709 64.2944L61.928 83.7871C61.9278 83.9053 61.8319 84.001 61.7137 84.001H49.628C49.5099 84.001 49.414 83.9053 49.4137 83.7871L49.3709 64.2945L48.8143 56.416L48.8141 56.4134L47.3588 31.3309L40.7699 13.4894C40.7456 13.4237 40.755 13.3502 40.7951 13.2927ZM41.2784 13.6295L47.7719 31.2124C47.7792 31.2323 47.7836 31.2531 47.7848 31.2742L49.2418 56.3858L49.2419 56.3885L49.7989 64.2716C49.7993 64.2764 49.7994 64.2813 49.7994 64.2862L49.8418 83.5724H61.4999L61.5423 64.2862C61.5423 64.2813 61.5425 64.2764 61.5428 64.2716L62.0998 56.3885L62.1 56.3858L63.557 31.2742C63.5582 31.2531 63.5625 31.2323 63.5699 31.2124L70.0633 13.6295H41.2784Z" fill="#F5841F"/>
</svg>
