<svg width="17" height="17" viewBox="0 0 17 17" fill="none" xmlns="http://www.w3.org/2000/svg">
<path d="M8.5 17C6.24566 17 4.08365 16.1045 2.48959 14.5104C0.895533 12.9163 0 10.7543 0 8.5C0 6.24566 0.895533 4.08365 2.48959 2.48959C4.08365 0.895533 6.24566 0 8.5 0C9.16405 0.000752374 9.82578 0.0783349 10.472 0.2312C10.7074 0.287108 10.9109 0.434219 11.0377 0.640172C11.1646 0.846124 11.2045 1.09405 11.1486 1.3294C11.0927 1.56475 10.9456 1.76826 10.7396 1.89514C10.5337 2.02203 10.2858 2.06191 10.0504 2.006C8.63568 1.66829 7.14939 1.80172 5.81745 2.38601C4.4855 2.97029 3.38075 3.97347 2.67111 5.24307C1.96146 6.51267 1.68575 7.97924 1.88586 9.41987C2.08598 10.8605 2.75099 12.1964 3.77981 13.2245C4.80862 14.2526 6.14498 14.9167 7.58575 15.1158C9.02651 15.315 10.4929 15.0382 11.762 14.3277C13.0311 13.6172 14.0335 12.5118 14.6169 11.1794C15.2003 9.84706 15.3327 8.36068 14.994 6.9462C14.9663 6.82967 14.9619 6.70882 14.9809 6.59056C14.9999 6.4723 15.042 6.35895 15.1049 6.25697C15.2317 6.05102 15.4352 5.90391 15.6706 5.848C15.906 5.79209 16.1539 5.83197 16.3598 5.95886C16.5658 6.08574 16.7129 6.28925 16.7688 6.5246C16.9217 7.17197 16.9992 7.83483 17 8.5C17 10.7543 16.1045 12.9163 14.5104 14.5104C12.9163 16.1045 10.7543 17 8.5 17Z" fill="#456078"/>
<path d="M14.7154 2.28109C14.4606 2.02779 14.1159 1.88561 13.7566 1.88561C13.3973 1.88561 13.0526 2.02779 12.7978 2.28109C12.7873 2.29431 12.776 2.30681 12.7638 2.31849C12.5589 2.54054 12.4324 2.82355 12.4034 3.12429C12.4034 3.17189 12.4034 3.21949 12.4034 3.27049C12.4034 3.32149 12.4034 3.33509 12.4034 3.36909C12.3695 3.71291 12.2625 4.04551 12.0895 4.34459C11.9166 4.64367 11.6817 4.90233 11.4006 5.10324C11.1195 5.30414 10.7988 5.44265 10.4598 5.50947C10.1208 5.57629 9.77151 5.56989 9.43522 5.49069L9.23802 5.43969C8.98114 5.37639 8.71714 5.34668 8.45262 5.35129C7.67837 5.36281 6.93584 5.66079 6.36842 6.18769L6.27322 6.27269C5.68303 6.86287 5.35147 7.66334 5.35147 8.49799C5.35147 9.33264 5.68303 10.1331 6.27322 10.7233C6.86341 11.3135 7.66387 11.645 8.49852 11.645C9.33317 11.645 10.1336 11.3135 10.7238 10.7233C10.8491 10.5904 10.9629 10.4471 11.0638 10.2949C11.3204 9.93214 11.4972 9.5192 11.5828 9.08322C11.6683 8.64724 11.6606 8.19809 11.5602 7.76529C11.5412 7.70955 11.5253 7.65279 11.5126 7.59529C11.5126 7.59529 11.5126 7.57829 11.5126 7.56809C11.4338 7.22892 11.429 6.87676 11.4984 6.53556C11.5679 6.19436 11.7101 5.87213 11.9153 5.5908C12.1205 5.30948 12.3839 5.07565 12.6875 4.90525C12.9912 4.73484 13.328 4.63185 13.675 4.60329H13.896C14.2095 4.57294 14.5027 4.43474 14.7256 4.21229C14.7771 4.15661 14.8248 4.09754 14.8684 4.03549C15.0551 3.77242 15.1423 3.45155 15.1142 3.13018C15.0862 2.80881 14.9448 2.50786 14.7154 2.28109Z" fill="#456078"/>
</svg>
