<?xml version="1.0" encoding="UTF-8"?><svg id="Layer_1" xmlns="http://www.w3.org/2000/svg" xmlns:xlink="http://www.w3.org/1999/xlink" viewBox="0 0 64 80"><defs><linearGradient id="linear-gradient" x1="24.01" y1="73" x2="43.39" y2="73" gradientTransform="translate(0 82) scale(1 -1)" gradientUnits="userSpaceOnUse"><stop offset="0" stop-color="#5a68e6"/><stop offset="1" stop-color="#4986ea" stop-opacity=".68"/></linearGradient><linearGradient id="linear-gradient-2" x1="8.03" y1="27" x2="59.71" y2="27" gradientTransform="translate(0 82) scale(1 -1)" gradientUnits="userSpaceOnUse"><stop offset="0" stop-color="#5a68e6"/><stop offset="1" stop-color="#4986ea" stop-opacity=".68"/></linearGradient></defs><path d="M44.36,.53c.81,.75,.86,2.02,.11,2.83l-12.96,14c-.38,.41-.91,.64-1.47,.64s-1.09-.23-1.47-.64l-7.04-7.61c-.75-.81-.7-2.08,.11-2.83,.81-.75,2.08-.7,2.83,.11l5.57,6.02L41.53,.64c.75-.81,2.02-.86,2.83-.11Z" fill="url(#linear-gradient)" fill-rule="evenodd"/><path d="M0,39c0-4.97,4.03-9,9-9h13.69c2.66,0,5.19,1.18,6.9,3.22l2.75,3.28h25.83c3.09,0,5.64,2.4,5.83,5.48v29.01c0,4.97-4.03,9-9,9H9c-4.97,0-9-4.03-9-9V39Z" fill="url(#linear-gradient-2)" isolation="isolate" opacity=".62"/><path d="M25.41,55.51c0-.22,.07-.44,.19-.63,.12-.19,.3-.33,.51-.42,.21-.09,.44-.11,.66-.06,.22,.04,.42,.15,.58,.31,.16,.16,.27,.36,.31,.58,.04,.22,.02,.45-.07,.65-.09,.21-.23,.38-.42,.51-.19,.12-.41,.19-.63,.19-.3,0-.59-.12-.8-.33-.21-.21-.33-.5-.33-.8Zm-.39,6.68c-.9-.73-1.72-1.55-2.45-2.44,.75-.83,1.57-1.59,2.44-2.29,.04-.04,.08-.08,.11-.13s.04-.1,.05-.16c0-.06,0-.11-.02-.17s-.04-.1-.08-.15c-.04-.04-.08-.08-.13-.11-.05-.03-.11-.04-.16-.05s-.11,0-.17,.02c-.05,.02-.11,.04-.15,.08-.86,.69-1.66,1.44-2.41,2.25-.75-1.13-1-2.1-.64-2.72,.36-.62,1.31-.89,2.71-.81,.11,0,.23-.03,.31-.11,.09-.08,.14-.18,.14-.3,0-.11-.03-.22-.11-.31-.08-.09-.18-.14-.3-.15-1.77-.1-2.97,.32-3.51,1.24-.34,.58-.53,1.61,.43,3.25,.11,.19,.24,.38,.37,.58-1.34,1.68-1.8,3.13-1.22,4.12,.44,.75,1.37,1.13,2.75,1.13,.51,0,1.02-.05,1.53-.13,.11-.02,.22-.08,.28-.17,.07-.09,.1-.21,.08-.32-.02-.11-.08-.21-.17-.28s-.21-.1-.32-.08c-1.78,.28-3.02,.07-3.39-.58-.32-.56-.06-1.6,1.01-2.98,.74,.88,1.56,1.69,2.46,2.42,.08,.07,.18,.1,.28,.1,.09,0,.18-.03,.25-.08,.07-.05,.13-.12,.16-.21s.03-.17,.01-.26c-.02-.09-.07-.16-.14-.22h0Zm1.26-4.72c-.06,0-.11,.01-.17,.03s-.1,.05-.14,.09c-.04,.04-.07,.09-.09,.14-.02,.05-.03,.11-.03,.17v.08c0,1.17,.06,2.33,.17,3.45,.01,.11,.06,.21,.14,.28,.08,.07,.18,.11,.29,.11h.04c.11-.01,.22-.07,.29-.15,.07-.09,.11-.2,.1-.31-.11-1.09-.16-2.23-.16-3.37v-.08c0-.06,0-.11-.03-.17-.02-.05-.05-.1-.09-.14-.04-.04-.09-.07-.14-.09-.05-.02-.11-.03-.17-.03h0Zm6.52,3.31c-1.24,.69-2.52,1.31-3.84,1.84-.09,.04-.17,.11-.22,.19-.05,.09-.06,.19-.04,.29,.02,.1,.07,.19,.15,.25,.08,.06,.18,.1,.28,.1,.06,0,.11-.01,.16-.03,1.35-.55,2.66-1.18,3.93-1.89,.09-.06,.16-.15,.19-.26s.01-.22-.04-.32c-.05-.1-.14-.17-.25-.2-.11-.03-.22-.02-.32,.02Zm9.95-9.85c-.65-1.12-2.41-1.42-5.09-.85-1,.22-1.98,.5-2.93,.86-.17-.74-.38-1.47-.64-2.19-.9-2.47-2.09-3.77-3.44-3.77-2.41,0-3.89,4.15-4.46,8.03-.02,.11,.01,.23,.08,.32,.07,.09,.17,.15,.29,.17,.11,.02,.23-.01,.32-.08,.09-.07,.15-.17,.17-.28,.63-4.29,2.12-7.29,3.6-7.29,.92,0,1.88,1.17,2.62,3.2,.26,.72,.47,1.46,.64,2.2-1.61,.64-3.16,1.4-4.66,2.26-.26,.16-.52,.3-.78,.47-.05,.03-.09,.07-.12,.11-.03,.05-.06,.1-.07,.15-.01,.05-.02,.11,0,.17,0,.06,.03,.11,.06,.16,.03,.05,.07,.09,.11,.12,.05,.03,.1,.06,.15,.07,.06,.01,.11,.02,.17,0,.06,0,.11-.03,.16-.06,.26-.16,.52-.31,.77-.45,1.42-.82,2.89-1.54,4.4-2.15,.32,1.74,.49,3.51,.51,5.28,0,.11,.05,.22,.13,.3,.08,.08,.19,.12,.3,.12h0c.12,0,.22-.05,.3-.13,.08-.08,.12-.19,.12-.31-.02-1.87-.21-3.74-.55-5.58,3.73-1.37,6.49-1.46,7.09-.43,.33,.57,.04,1.53-.82,2.72-.93,1.28-2.43,2.71-4.33,4.11-.05,.03-.08,.08-.11,.12-.03,.05-.05,.1-.06,.16,0,.06,0,.11,0,.17,.01,.05,.04,.11,.07,.15,.03,.05,.08,.08,.13,.11,.05,.03,.1,.05,.16,.06,.06,0,.11,0,.17,0,.06-.01,.11-.04,.15-.07,1.98-1.46,3.54-2.95,4.52-4.31,.75-1.05,1.52-2.52,.87-3.65Zm-5.36,9.82c-.09-.07-.2-.11-.32-.1-.11,0-.22,.06-.3,.15-.08,.09-.11,.2-.1,.31,0,.11,.06,.22,.15,.29,2.66,2.27,4.01,4.55,3.36,5.66-.45,.78-1.86,1.01-3.87,.67-.75-.13-1.49-.32-2.22-.55,.55-1.59,.92-3.24,1.11-4.92,.01-.11-.02-.23-.09-.32-.07-.09-.17-.15-.29-.16s-.23,.02-.32,.09c-.09,.07-.15,.17-.16,.29-.18,1.62-.54,3.21-1.07,4.75-1.49-.55-2.94-1.23-4.31-2.02-.1-.05-.21-.06-.32-.03-.11,.03-.2,.1-.25,.2-.06,.1-.07,.21-.05,.32,.03,.11,.09,.2,.18,.26,1.41,.81,2.89,1.51,4.42,2.07-.05,.11-.09,.21-.14,.31-.66,1.36-1.42,2.1-2.15,2.1-1.06,0-2.15-1.53-2.91-4.09-.02-.05-.04-.1-.08-.15-.04-.04-.08-.08-.13-.11-.05-.03-.11-.04-.16-.05-.06,0-.11,0-.17,.02-.05,.02-.11,.04-.15,.08-.04,.04-.08,.08-.11,.13-.03,.05-.04,.1-.05,.16,0,.06,0,.11,.02,.17,.9,3.04,2.23,4.71,3.74,4.71,1.1,0,2.11-.9,2.94-2.59,.06-.13,.12-.26,.18-.4,.78,.26,1.58,.46,2.39,.6,.58,.1,1.16,.15,1.75,.16,1.49,0,2.54-.43,3.02-1.25,.9-1.55-.43-4.07-3.55-6.74h0Zm-4.03-2.84l-.27-.16c-1.3-.75-2.65-1.4-4.05-1.94-.11-.03-.22-.03-.32,.02-.1,.05-.18,.13-.22,.23-.04,.1-.04,.22,0,.32,.04,.1,.12,.18,.23,.23,1.36,.53,2.67,1.15,3.93,1.88l.27,.16c.07,.04,.14,.06,.22,.06,.1,0,.2-.02,.27-.08,.08-.06,.14-.14,.16-.23,.03-.09,.02-.19-.02-.28-.04-.09-.11-.16-.19-.21Zm-5.41,5.88c0-.22-.07-.44-.19-.63-.12-.19-.3-.33-.51-.41-.21-.09-.44-.11-.66-.06-.22,.04-.42,.15-.58,.31-.16,.16-.27,.36-.31,.58-.04,.22-.02,.45,.06,.65,.09,.21,.23,.38,.42,.51,.19,.12,.41,.19,.63,.19,.3,0,.59-.12,.8-.33,.21-.21,.33-.5,.33-.8Zm8.22-3.98c0-.22-.07-.44-.19-.63-.12-.19-.3-.33-.51-.42-.21-.09-.44-.11-.66-.06-.22,.04-.42,.15-.58,.31-.16,.16-.27,.36-.31,.58-.04,.22-.02,.45,.06,.65,.09,.21,.23,.38,.42,.51,.19,.12,.41,.19,.63,.19,.15,0,.3-.03,.44-.09,.14-.06,.26-.14,.37-.25,.11-.11,.19-.23,.25-.37,.06-.14,.09-.28,.09-.43h0Z" fill="#f0f6ff"/></svg>