<?xml version="1.0" encoding="UTF-8"?><svg id="Layer_1" xmlns="http://www.w3.org/2000/svg" xmlns:xlink="http://www.w3.org/1999/xlink" viewBox="0 0 52.49 69.34"><defs><linearGradient id="linear-gradient" x1="6.59" y1="19.99" x2="48.97" y2="20" gradientTransform="translate(0 72) scale(1 -1)" gradientUnits="userSpaceOnUse"><stop offset="0" stop-color="#5a68e6"/><stop offset="1" stop-color="#4986ea" stop-opacity=".68"/></linearGradient><linearGradient id="linear-gradient-2" x1="6.59" y1="14.79" x2="48.97" y2="14.79" gradientTransform="translate(0 72) scale(1 -1)" gradientUnits="userSpaceOnUse"><stop offset="0" stop-color="#5a68e6"/><stop offset="1" stop-color="#4986ea" stop-opacity=".68"/></linearGradient><linearGradient id="linear-gradient-3" x1="15.29" y1="59.87" x2="36.98" y2="59.87" gradientTransform="translate(0 72) scale(1 -1)" gradientUnits="userSpaceOnUse"><stop offset=".02" stop-color="#2abcf1"/><stop offset="1" stop-color="#6a4de3"/></linearGradient></defs><path d="M3.5,40.91c0-3.45,2.79-6.24,6.24-6.24h9.49c1.85,0,3.6,.82,4.79,2.24l1.91,2.28h17.91c2.14,0,3.91,1.66,4.04,3.8v20.12c0,3.45-2.79,6.24-6.24,6.24H9.74c-3.45,0-6.24-2.79-6.24-6.24v-22.19Z" fill="url(#linear-gradient)"/><path d="M3.77,65.66L.15,51.1c-.76-3.06,1.55-6.03,4.71-6.03H47.63c3.24,0,5.57,3.12,4.66,6.23l-4.29,14.56c-.61,2.06-2.5,3.48-4.66,3.48H8.48c-2.23,0-4.17-1.52-4.71-3.68Z" fill="url(#linear-gradient-2)"/><path d="M20.39,9.81c0-.21,.06-.41,.18-.59,.12-.17,.29-.31,.48-.39,.2-.08,.41-.1,.62-.06,.21,.04,.4,.14,.55,.29,.15,.15,.25,.34,.29,.54,.04,.2,.02,.42-.06,.61-.08,.19-.22,.36-.4,.47-.18,.12-.38,.18-.6,.18-.28,0-.56-.11-.76-.31-.2-.2-.31-.47-.31-.74Zm-.37,6.24c-.85-.68-1.62-1.45-2.31-2.28,.71-.77,1.48-1.49,2.3-2.14,.04-.03,.08-.07,.1-.12,.03-.05,.04-.1,.05-.15,0-.05,0-.11-.02-.16-.02-.05-.04-.1-.08-.14-.03-.04-.08-.07-.12-.1-.05-.02-.1-.04-.15-.05-.05,0-.11,0-.16,.02-.05,.02-.1,.04-.14,.07-.81,.64-1.57,1.35-2.27,2.1-.71-1.05-.94-1.96-.6-2.54,.34-.58,1.24-.83,2.56-.76,.11,0,.21-.03,.29-.1,.08-.07,.13-.17,.14-.28,0-.11-.03-.21-.1-.29-.07-.08-.17-.13-.28-.14-1.67-.1-2.81,.3-3.31,1.16-.32,.54-.5,1.5,.41,3.03,.1,.18,.22,.36,.35,.54-1.27,1.57-1.7,2.92-1.15,3.85,.41,.7,1.3,1.05,2.59,1.05,.48,0,.97-.04,1.44-.12,.11-.02,.2-.07,.27-.16,.06-.09,.09-.19,.07-.3-.02-.11-.08-.2-.16-.26-.09-.06-.2-.09-.3-.07-1.68,.26-2.85,.06-3.2-.54-.31-.52-.05-1.49,.95-2.78,.7,.82,1.47,1.58,2.32,2.26,.07,.06,.17,.09,.26,.09,.08,0,.17-.02,.24-.07,.07-.05,.12-.11,.15-.19,.03-.08,.03-.16,.01-.24-.02-.08-.07-.15-.13-.2h0Zm1.19-4.4c-.05,0-.11,0-.16,.03-.05,.02-.1,.05-.13,.09-.04,.04-.07,.08-.09,.13-.02,.05-.03,.1-.03,.15v.08c0,1.09,.05,2.18,.16,3.22,0,.1,.06,.19,.13,.26,.08,.07,.17,.1,.28,.1h.04c.11-.01,.21-.06,.27-.14s.1-.19,.09-.29c-.1-1.02-.15-2.08-.15-3.15v-.07c0-.05,0-.11-.03-.16-.02-.05-.05-.1-.09-.13-.04-.04-.08-.07-.14-.09-.05-.02-.11-.03-.16-.03h0Zm6.15,3.09c-1.17,.64-2.38,1.22-3.62,1.72-.09,.04-.16,.1-.21,.18-.04,.08-.06,.18-.04,.27,.02,.09,.07,.17,.14,.23,.07,.06,.17,.09,.26,.09,.05,0,.11-.01,.16-.03,1.27-.51,2.51-1.1,3.71-1.76,.09-.06,.15-.14,.18-.24,.03-.1,.01-.21-.04-.3-.05-.09-.14-.16-.23-.19-.1-.03-.21-.02-.3,.02Zm9.39-9.2c-.62-1.05-2.28-1.32-4.8-.79-.94,.2-1.86,.47-2.77,.8-.16-.69-.36-1.37-.6-2.04-.85-2.3-1.97-3.52-3.25-3.52-2.28,0-3.67,3.87-4.21,7.5-.02,.11,.01,.21,.08,.3,.06,.09,.16,.14,.27,.16,.11,.02,.22-.01,.3-.08,.09-.06,.14-.16,.16-.26,.6-4.01,2-6.81,3.4-6.81,.87,0,1.77,1.09,2.47,2.99,.24,.67,.44,1.36,.6,2.06-1.51,.6-2.98,1.31-4.4,2.11-.24,.15-.49,.28-.74,.44-.05,.03-.09,.06-.12,.11-.03,.04-.05,.09-.07,.14-.01,.05-.02,.1,0,.16,0,.05,.03,.1,.05,.15,.03,.05,.06,.08,.11,.12,.04,.03,.09,.05,.14,.07,.05,.01,.11,.01,.16,0,.05,0,.1-.03,.15-.05,.24-.15,.49-.29,.72-.42,1.34-.76,2.72-1.43,4.15-2.01,.3,1.63,.46,3.28,.48,4.93,0,.11,.05,.21,.12,.28,.08,.07,.18,.12,.29,.12h0c.11,0,.21-.05,.29-.12,.08-.08,.12-.18,.12-.29-.02-1.75-.2-3.49-.52-5.21,3.52-1.28,6.12-1.37,6.69-.4,.31,.53,.04,1.43-.77,2.53-.88,1.19-2.29,2.53-4.08,3.84-.04,.03-.08,.07-.11,.12-.03,.05-.05,.1-.05,.15,0,.05,0,.11,0,.16,.01,.05,.04,.1,.07,.14,.03,.04,.07,.08,.12,.11,.05,.03,.1,.05,.15,.05,.05,0,.11,0,.16,0,.05-.01,.1-.04,.14-.07,1.86-1.36,3.34-2.76,4.26-4.02,.71-.98,1.43-2.36,.82-3.4Zm-5.06,9.17c-.08-.07-.19-.1-.3-.1-.11,0-.21,.06-.28,.14-.07,.08-.11,.19-.1,.29,0,.11,.06,.21,.14,.27,2.51,2.12,3.78,4.24,3.17,5.28-.42,.73-1.75,.95-3.65,.63-.71-.12-1.41-.3-2.09-.52,.52-1.49,.87-3.03,1.05-4.59,.01-.11-.02-.21-.08-.3-.07-.08-.16-.14-.27-.15-.11-.01-.22,.02-.3,.08-.09,.07-.14,.16-.15,.27-.17,1.51-.51,2.99-1.01,4.43-1.41-.51-2.77-1.14-4.07-1.89-.09-.05-.2-.06-.3-.03-.1,.03-.19,.1-.24,.18-.05,.09-.07,.19-.04,.29,.02,.1,.09,.19,.17,.24,1.33,.76,2.73,1.41,4.17,1.94-.04,.1-.09,.19-.13,.29-.62,1.27-1.34,1.96-2.03,1.96-1,0-2.03-1.43-2.74-3.82-.02-.05-.04-.1-.07-.14-.03-.04-.08-.08-.12-.1-.05-.03-.1-.04-.15-.05-.05,0-.11,0-.16,.01-.05,.02-.1,.04-.14,.07-.04,.03-.08,.07-.1,.12-.03,.05-.04,.1-.05,.15,0,.05,0,.11,.01,.16,.85,2.83,2.11,4.39,3.53,4.39,1.03,0,1.99-.84,2.77-2.42,.06-.12,.12-.25,.17-.37,.74,.24,1.49,.42,2.26,.56,.54,.09,1.09,.14,1.65,.15,1.41,0,2.4-.4,2.85-1.17,.85-1.45-.4-3.8-3.35-6.29h0Zm-3.8-2.65l-.26-.15c-1.23-.7-2.5-1.3-3.82-1.81-.1-.03-.21-.03-.3,.02-.1,.04-.17,.12-.21,.22-.04,.1-.04,.2,0,.3,.04,.1,.12,.17,.21,.21,1.28,.49,2.52,1.08,3.71,1.76l.25,.15c.06,.04,.13,.06,.21,.06,.09,0,.18-.02,.26-.08,.07-.05,.13-.13,.15-.22,.02-.09,.02-.18-.02-.27-.04-.08-.1-.15-.18-.2Zm-5.11,5.49c0-.21-.06-.41-.18-.58-.12-.17-.28-.31-.48-.39-.2-.08-.41-.1-.62-.06-.21,.04-.4,.14-.55,.29-.15,.15-.25,.33-.29,.54-.04,.2-.02,.42,.06,.61,.08,.19,.22,.36,.39,.47,.18,.12,.38,.18,.59,.18,.28,0,.56-.11,.76-.31,.2-.2,.31-.46,.31-.74Zm7.75-3.71c0-.21-.06-.41-.18-.59-.12-.17-.28-.31-.48-.39-.2-.08-.41-.1-.62-.06-.21,.04-.4,.14-.55,.29-.15,.15-.25,.33-.29,.54-.04,.2-.02,.42,.06,.61,.08,.19,.22,.36,.4,.47,.18,.12,.38,.18,.6,.18,.14,0,.28-.03,.41-.08,.13-.05,.25-.13,.35-.23,.1-.1,.18-.21,.23-.34,.05-.13,.08-.27,.08-.4h0Z" fill="url(#linear-gradient-3)"/></svg>