<?xml version="1.0" standalone="no"?>
<!DOCTYPE svg PUBLIC "-//W3C//DTD SVG 20010904//EN"
 "http://www.w3.org/TR/2001/REC-SVG-20010904/DTD/svg10.dtd">
<svg version="1.0" xmlns="http://www.w3.org/2000/svg"
 width="2942px" height="746px" viewBox="0 0 2942.000000 746.000000"
 preserveAspectRatio="xMidYMid meet">
<metadata>
Created by potrace 1.14, written by Peter Selinger 2001-2017
</metadata>
<g transform="translate(0.000000,746.000000) scale(0.100000,-0.100000)"
fill="#ffffff" stroke="none">
<path d="M1870 5595 l-1865 -1865 1862 -1862 1863 -1863 813 813 812 812 813
-812 812 -813 1865 1865 1865 1865 -1862 1862 -1863 1863 -812 -812 -813 -813
-813 813 -812 812 -1865 -1865z m4420 -2200 c-187 -187 -340 -345 -340 -350 0
-5 91 -101 202 -212 l203 -203 552 552 553 553 -842 842 -843 843 605 605 605
605 1448 -1448 1447 -1447 -1450 -1450 -1450 -1450 -1447 1447 -1448 1448 343
343 342 342 -208 208 -207 207 -550 -550 -550 -550 843 -843 842 -842 -605
-605 -605 -605 -1448 1448 -1447 1447 1450 1450 1450 1450 1447 -1447 1448
-1448 -340 -340z"/>
<path d="M9592 5771 c2 -5 485 -464 1073 -1020 589 -557 1071 -1015 1072
-1019 1 -5 -1640 -1562 -2029 -1924 l-83 -78 9898 0 9897 0 0 2025 0 2025
-9916 0 c-5652 0 -9914 -4 -9912 -9z m19536 -2018 l-3 -1728 -4227 -3 -4228
-2 0 1730 0 1730 4230 0 4230 0 -2 -1727z m-15274 1088 c224 -59 413 -210 476
-378 24 -66 47 -201 37 -226 -6 -16 -28 -17 -239 -15 l-233 3 -7 48 c-8 58
-47 128 -91 161 -57 44 -113 59 -222 60 -95 1 -104 -1 -168 -32 -109 -54 -157
-145 -128 -242 27 -92 125 -145 521 -285 282 -100 451 -220 522 -371 74 -158
75 -354 1 -503 -43 -88 -143 -181 -254 -235 -153 -74 -238 -90 -469 -90 -180
0 -203 2 -295 27 -118 32 -256 96 -342 160 -140 104 -220 258 -226 435 l-2 67
236 3 236 2 6 -60 c12 -114 65 -189 160 -230 123 -53 339 -48 430 10 110 69
118 255 15 333 -52 40 -186 100 -353 157 -167 57 -362 147 -452 208 -151 103
-223 241 -223 432 0 161 44 264 162 375 80 76 162 124 283 164 125 42 195 50
380 46 123 -2 178 -8 239 -24z m5283 0 c214 -53 360 -167 455 -355 33 -65 78
-229 78 -282 l0 -34 -229 0 -229 0 -6 45 c-10 64 -71 179 -114 215 -55 45
-123 64 -227 64 -114 0 -173 -24 -244 -98 -58 -62 -96 -133 -116 -218 -21 -91
-21 -666 0 -756 33 -138 108 -241 213 -290 52 -25 67 -27 177 -27 94 1 135 5
190 23 120 37 115 27 115 218 l0 164 -165 0 -165 0 0 160 0 160 405 0 405 0 0
-397 0 -396 -47 -44 c-106 -98 -270 -188 -409 -223 -198 -51 -468 -53 -629 -5
-152 45 -236 95 -351 210 -87 86 -107 113 -147 195 -26 52 -57 136 -69 185
-22 86 -23 108 -22 450 0 357 0 361 26 457 47 173 149 332 276 434 81 65 224
132 329 155 119 26 377 21 500 -10z m-2187 -186 l0 -185 -480 0 -480 0 0 -225
0 -225 405 0 405 0 0 -185 0 -185 -405 0 -405 0 0 -260 0 -260 480 0 480 0 0
-185 0 -185 -725 0 -725 0 0 1040 0 1040 725 0 725 0 0 -185z"/>
<path d="M21475 4828 c2 -7 108 -465 235 -1018 126 -553 232 -1015 235 -1027
l5 -23 228 0 229 0 168 623 c92 342 171 631 175 642 9 25 -8 85 194 -660 l163
-600 229 -3 229 -2 234 1027 c129 566 236 1034 239 1041 3 9 -47 12 -232 12
-130 0 -236 -3 -236 -7 0 -11 -260 -1316 -267 -1338 -6 -20 -6 -20 -13 0 -4
11 -88 318 -186 683 l-178 662 -170 -2 -169 -3 -179 -665 c-98 -366 -181 -672
-184 -680 -4 -8 -68 291 -143 665 l-137 680 -237 3 c-188 2 -236 0 -232 -10z"/>
<path d="M25130 3800 l0 -1040 240 0 240 0 0 1040 0 1040 -240 0 -240 0 0
-1040z"/>
<path d="M26670 4655 l0 -185 270 0 270 0 0 -855 0 -855 240 0 240 0 0 855 0
855 275 0 275 0 0 185 0 185 -785 0 -785 0 0 -185z"/>
</g>
</svg>
