<svg width="65" height="64" viewBox="0 0 65 64" fill="none" xmlns="http://www.w3.org/2000/svg">
<path d="M48.4807 21.4796C47.4956 20.4408 45.8532 20.3951 44.8128 21.3827L28.2489 37.0913L20.3484 28.9797C19.3478 27.9531 17.7072 27.9306 16.6797 28.9313C15.6531 29.9311 15.6314 31.5735 16.6312 32.6001L26.3177 42.5452C26.8253 43.0667 27.4999 43.3296 28.1763 43.3296C28.8181 43.3296 29.4598 43.0926 29.9623 42.6178L48.3839 25.1476C49.4234 24.1616 49.4674 22.5192 48.4807 21.4796Z" fill="#3D77E9"/>
<path d="M32.5 0C14.855 0 0.5 14.355 0.5 32C0.5 49.645 14.855 64 32.5 64C50.145 64 64.5 49.645 64.5 32C64.5 14.355 50.145 0 32.5 0ZM32.5 58.8109C17.7169 58.8109 5.68913 46.7841 5.68913 32C5.68913 17.2169 17.7167 5.18913 32.5 5.18913C47.284 5.18913 59.3109 17.2167 59.3109 32C59.3109 46.784 47.284 58.8109 32.5 58.8109Z" fill="#3D77E9"/>
</svg>
