<?xml version="1.0" encoding="UTF-8"?>
<svg id="Layer_1" xmlns="http://www.w3.org/2000/svg" width="66" height="66" xmlns:xlink="http://www.w3.org/1999/xlink" viewBox="0 0 66 66">
    <defs>
        <linearGradient id="linear-gradient" x1="20.19" y1="35" x2="47.91" y2="35" gradientTransform="translate(0 68) scale(1 -1)" gradientUnits="userSpaceOnUse">
            <stop offset="0" stop-color="#5a68e6" />
            <stop offset="1" stop-color="#4986ea" stop-opacity=".68" />
        </linearGradient>
        <linearGradient id="linear-gradient-2" x1="8.28" y1="35" x2="61.58" y2="35" gradientTransform="translate(0 68) scale(1 -1)" gradientUnits="userSpaceOnUse">
            <stop offset="0" stop-color="#5a68e6" />
            <stop offset="1" stop-color="#4986ea" stop-opacity=".68" />
        </linearGradient>
    </defs>
    <path d="M49.48,22.15c-1.02-1.07-2.71-1.12-3.78-.1l-17.08,16.2-8.15-8.37c-1.03-1.06-2.72-1.08-3.78-.05-1.06,1.03-1.08,2.72-.05,3.78l9.99,10.26c.52,.54,1.22,.81,1.92,.81s1.32-.24,1.84-.73l19-18.02c1.07-1.02,1.12-2.71,.1-3.78Z" fill="url(#linear-gradient)" />
    <path d="M33,0C14.8,0,0,14.8,0,33s14.8,33,33,33,33-14.8,33-33S51.2,0,33,0Zm0,60.65c-15.25,0-27.65-12.4-27.65-27.65S17.75,5.35,33,5.35s27.65,12.4,27.65,27.65-12.4,27.65-27.65,27.65Z" fill="url(#linear-gradient-2)" />
</svg>