<svg width="10" height="10" viewBox="0 0 10 10" fill="none" xmlns="http://www.w3.org/2000/svg">
<path d="M1.34974 8.70348H2.82101C3.16741 8.70348 3.34061 8.70348 3.49518 8.66068C3.66466 8.61031 3.81924 8.52097 3.94774 8.39802C4.06576 8.28559 4.15091 8.13656 4.3189 7.84257L4.32394 7.83376L6.23213 4.46062C6.40161 4.16451 6.48541 4.01551 6.52266 3.85908C6.56362 3.6896 6.56362 3.51081 6.52266 3.34134C6.48569 3.18608 6.40103 3.03816 6.23407 2.74645L5.48345 1.43615C5.32888 1.16424 5.25066 1.02829 5.15196 0.978004C5.0458 0.923999 4.91916 0.923999 4.813 0.978004C4.7143 1.02829 4.63608 1.16424 4.48151 1.43615L0.84877 7.83934C0.696059 8.10752 0.619694 8.24166 0.625286 8.35149C0.632736 8.4707 0.694192 8.57871 0.794764 8.64393C0.887876 8.70348 1.04059 8.70348 1.34974 8.70348Z" fill="white"/>
<path d="M8.64459 8.70348H6.53644C6.22542 8.70348 6.06899 8.70348 5.97772 8.64393C5.87716 8.57871 5.81571 8.46889 5.80826 8.34967C5.8027 8.24066 5.87967 8.10779 6.03368 7.84194L6.03732 7.83566L7.08956 6.02917C7.24414 5.76285 7.32235 5.63062 7.4192 5.58034C7.5253 5.52633 7.65017 5.52633 7.75627 5.58034C7.85242 5.6293 7.9273 5.75592 8.07555 6.00661L8.08777 6.02731L9.14377 7.8338C9.14891 7.8427 9.15396 7.85145 9.15901 7.86005C9.30537 8.11263 9.38008 8.24156 9.37473 8.34785C9.36908 8.46697 9.30578 8.5769 9.20524 8.64211C9.11207 8.70348 8.9556 8.70348 8.64459 8.70348Z" fill="white"/>
</svg>
