<svg width="10" height="10" viewBox="0 0 10 10" fill="none" xmlns="http://www.w3.org/2000/svg">
<g clip-path="url(#clip0_84_1131)">
<path d="M5 2.43125L3.1793 4.25195L2.12 3.1925L5 0.3125L7.88094 3.19336L6.82156 4.25274L5 2.43125Z" fill="white"/>
<path d="M1.37191 3.94044L0.3125 5L1.37184 6.05919L2.43125 4.99977L1.37191 3.94044Z" fill="white"/>
<path d="M5 7.56875L3.1793 5.74816L2.1185 6.806L5 9.6875L7.88094 6.80668L7.88146 6.80611L6.82153 5.7473L5 7.56875Z" fill="white"/>
<path d="M8.62816 3.94104L7.56875 5.00045L8.62813 6.05979L9.6875 5.00037L8.62816 3.94104Z" fill="white"/>
<path d="M6.07476 4.99916H6.07438L6.07536 4.99969L6.07483 5.00029L4.99984 6.07525L3.92578 5.00108L3.92428 4.99954L3.92578 4.99808L4.99984 3.92421L6.07476 4.99916Z" fill="white"/>
</g>
<defs>
<clipPath id="clip0_84_1131">
<rect width="10" height="10" fill="white"/>
</clipPath>
</defs>
</svg>
