<svg width="10" height="10" viewBox="0 0 10 10" fill="none" xmlns="http://www.w3.org/2000/svg">
<path fill-rule="evenodd" clip-rule="evenodd" d="M4.64043 0.402305C4.87505 0.282565 5.23206 0.282565 5.46668 0.402305L7.86081 1.62414C8.00212 1.69625 8.07972 1.80372 8.09363 1.91465H8.09591V8.05623C8.0928 8.17723 8.01446 8.29742 7.86081 8.37586L5.46668 9.59769C5.23206 9.71744 4.87505 9.71744 4.64043 9.59769L2.2463 8.37586C2.09329 8.29779 2.01986 8.17672 2.01623 8.05623C2.01587 8.04437 2.01582 8.03448 2.01617 8.02628L2.01615 1.9541C2.01591 1.94745 2.01589 1.9408 2.01609 1.93419L2.01623 1.91465L2.0173 1.91464C2.02793 1.80249 2.10202 1.69778 2.2463 1.62414L4.64043 0.402305ZM7.71905 5.341L5.46671 6.49048C5.23209 6.61022 4.87508 6.61022 4.64046 6.49048L2.39305 5.34357V8.04408L4.64046 9.18497C4.76737 9.25052 4.89908 9.31439 5.02787 9.32252L5.05359 9.32332C5.17968 9.32373 5.30232 9.26564 5.42627 9.20692L5.45021 9.19559L7.71905 8.03426V5.341ZM1.71134 8.42164C1.65514 8.31265 1.62684 8.15796 1.62684 7.92271H1.25L1.25004 7.93904C1.25272 8.47642 1.38835 8.73467 1.75204 8.97161C1.78607 8.9938 1.82254 9.01629 1.86655 9.04258L1.89213 9.05774L2.04434 9.14658L2.23937 8.83501L2.10339 8.75569L2.0591 8.72947C2.02155 8.70706 1.9907 8.68794 1.9627 8.66971L1.95541 8.66495C1.8278 8.58094 1.75792 8.51194 1.71134 8.42164ZM4.86512 3.69488C4.84769 3.70067 4.83135 3.70735 4.81646 3.71496L2.42233 4.93679L2.41514 4.9406L2.41311 4.94174L2.41687 4.94381L2.42233 4.94667L4.81646 6.16851C4.83135 6.17612 4.84769 6.1828 4.86512 6.18859V3.69488ZM5.24204 6.18859V3.69488C5.25947 3.70067 5.2758 3.70735 5.29069 3.71496L7.68483 4.93679L7.69028 4.93966L7.69404 4.94174L7.69201 4.94287L7.68483 4.94667L5.29069 6.16851C5.2758 6.17612 5.25947 6.1828 5.24204 6.18859ZM7.71903 2.35032L5.57136 3.44638L7.71903 4.54245V2.35032ZM4.53574 3.44638L2.39305 4.53988V2.35288L4.53574 3.44638ZM5.29072 0.724278C5.16622 0.660738 4.94096 0.660738 4.81646 0.724278L2.42233 1.94612L2.41514 1.94992L2.41311 1.95106L2.41687 1.95314L2.42233 1.956L4.81646 3.17784C4.94096 3.24138 5.16622 3.24138 5.29072 3.17784L7.68485 1.956L7.69204 1.95219L7.69407 1.95106L7.69031 1.94898L7.68485 1.94612L5.29072 0.724278ZM8.22504 0.94709L8.07283 0.85827L7.87779 1.16983L8.01378 1.24912L8.05806 1.27533C8.09561 1.29779 8.12647 1.3169 8.15447 1.33515L8.16176 1.33991C8.28936 1.42389 8.35925 1.49291 8.40583 1.58322C8.46202 1.69218 8.49033 1.84684 8.49033 2.08215H8.86717L8.86709 2.06578C8.86445 1.52845 8.72881 1.27014 8.36513 1.03323C8.3311 1.01106 8.29463 0.988514 8.25062 0.962267L8.22504 0.94709Z" fill="white"/>
</svg>
