<svg width="10" height="10" viewBox="0 0 10 10" fill="none" xmlns="http://www.w3.org/2000/svg">
<g clip-path="url(#clip0_84_1138)">
<path d="M7.41106 3.45871C7.23972 3.3608 7.01942 3.3608 6.8236 3.45871L5.45284 4.26648L4.52268 4.78052L3.1764 5.58828C3.00506 5.68619 2.78476 5.68619 2.58894 5.58828L1.53639 4.95186C1.36505 4.85395 1.24266 4.65813 1.24266 4.43783V3.21394C1.24266 3.01811 1.34057 2.82229 1.53639 2.6999L2.58894 2.08796C2.76028 1.99005 2.98058 1.99005 3.1764 2.08796L4.22895 2.72438C4.40029 2.82229 4.52268 3.01811 4.52268 3.23841V4.04618L5.45284 3.50767V2.67542C5.45284 2.4796 5.35493 2.28378 5.15911 2.16139L3.20088 1.01093C3.02954 0.913022 2.80924 0.913022 2.61341 1.01093L0.606234 2.18587C0.410411 2.28378 0.3125 2.4796 0.3125 2.67542V4.97634C0.3125 5.17216 0.410411 5.36798 0.606234 5.49037L2.58894 6.64083C2.76028 6.73874 2.98058 6.73874 3.1764 6.64083L4.52268 5.85754L5.45284 5.31903L6.79912 4.53574C6.97046 4.43783 7.19076 4.43783 7.38659 4.53574L8.43913 5.14768C8.61048 5.24559 8.73287 5.44142 8.73287 5.66172V6.88561C8.73287 7.08143 8.63495 7.27725 8.43913 7.39964L7.41106 8.01159C7.23972 8.1095 7.01942 8.1095 6.8236 8.01159L5.77105 7.39964C5.59971 7.30173 5.47732 7.10591 5.47732 6.88561V6.10232L4.54716 6.64083V7.4486C4.54716 7.64442 4.64507 7.84024 4.84089 7.96263L6.8236 9.11309C6.99494 9.211 7.21524 9.211 7.41106 9.11309L9.39377 7.96263C9.56511 7.86472 9.6875 7.6689 9.6875 7.4486V5.12321C9.6875 4.92738 9.58959 4.73156 9.39377 4.60917L7.41106 3.45871Z" fill="white"/>
</g>
<defs>
<clipPath id="clip0_84_1138">
<rect width="10" height="10" fill="white"/>
</clipPath>
</defs>
</svg>
