<svg width="44" height="44" viewBox="0 0 44 44" fill="none"
    xmlns="http://www.w3.org/2000/svg">
    <path d="M22.0022 10.8916C21.2527 10.8916 20.6451 11.4969 20.6451 12.2437V14.948C20.6451 15.6947 21.2527 16.3001 22.0022 16.3001C22.7518 16.3001 23.3594 15.6947 23.3594 14.948V12.2437C23.3594 11.4969 22.7518 10.8916 22.0022 10.8916Z" fill="#ADAFC4"/>
    <path d="M22.0022 27.1172C21.2527 27.1172 20.6451 27.7226 20.6451 28.4694V31.1736C20.6451 31.9204 21.2527 32.5258 22.0022 32.5258C22.7518 32.5258 23.3594 31.9204 23.3594 31.1736V28.4694C23.3594 27.7226 22.7518 27.1172 22.0022 27.1172Z" fill="#ADAFC4"/>
    <path fill-rule="evenodd" clip-rule="evenodd" d="M22.0022 4.13086C22.0022 4.13086 25.5908 4.13086 28.87 5.51277C28.87 5.51277 32.0364 6.8471 34.4776 9.27928C34.4776 9.27928 36.9188 11.7115 38.2581 14.8662C38.2581 14.8662 39.6451 18.1334 39.6451 21.7087C39.6451 21.7087 39.6451 25.284 38.2581 28.5512C38.2581 28.5512 36.9188 31.7059 34.4776 34.1381C34.4776 34.1381 32.0364 36.5702 28.87 37.9046C28.87 37.9046 25.5907 39.2865 22.0022 39.2865C22.0022 39.2865 18.4137 39.2865 15.1344 37.9046C15.1344 37.9046 11.968 36.5702 9.52685 34.1381C9.52685 34.1381 7.08566 31.7059 5.7464 28.5512C5.7464 28.5512 4.35938 25.284 4.35938 21.7087C4.35938 21.7087 4.35938 18.1334 5.7464 14.8662C5.7464 14.8662 7.08567 11.7115 9.52685 9.27928C9.52685 9.27928 11.968 6.8471 15.1344 5.51277C15.1344 5.51277 18.4137 4.13086 22.0022 4.13086ZM22.0022 6.83514C22.0022 6.83514 18.9641 6.83514 16.1918 8.00342C16.1918 8.00342 13.513 9.13228 11.4461 11.1915C11.4461 11.1915 9.3793 13.2507 8.24627 15.9196C8.24627 15.9196 7.07366 18.6818 7.07366 21.7087C7.07366 21.7087 7.07366 24.7356 8.24626 27.4977C8.24626 27.4977 9.3793 30.1666 11.4461 32.2258C11.4461 32.2258 13.513 34.2851 16.1918 35.4139C16.1918 35.4139 18.9641 36.5822 22.0022 36.5822C22.0022 36.5822 25.0403 36.5822 27.8127 35.4139C27.8127 35.4139 30.4915 34.2851 32.5583 32.2258C32.5583 32.2258 34.6252 30.1666 35.7582 27.4977C35.7582 27.4977 36.9308 24.7356 36.9308 21.7087C36.9308 21.7087 36.9308 18.6818 35.7582 15.9196C35.7582 15.9196 34.6252 13.2507 32.5583 11.1915C32.5583 11.1915 30.4915 9.13227 27.8127 8.00342C27.8127 8.00342 25.0403 6.83514 22.0022 6.83514Z" fill="#ADAFC4"/>
    <path d="M19.9665 16.3001H26.0737C26.8232 16.3001 27.4308 15.6947 27.4308 14.948C27.4308 14.2012 26.8232 13.5958 26.0737 13.5958H19.9665C17.999 13.5958 16.6078 14.9819 16.6078 14.9819C15.2165 16.3681 15.2165 18.3283 15.2165 18.3283C15.2165 20.2886 16.6078 21.6747 16.6078 21.6747C17.999 23.0608 19.9665 23.0608 19.9665 23.0608H24.0379C24.8812 23.0608 25.4774 23.6549 25.4774 23.6549C26.0737 24.2489 26.0737 25.089 26.0737 25.089C26.0737 25.9291 25.4774 26.5232 25.4774 26.5232C24.8812 27.1172 24.0379 27.1172 24.0379 27.1172H17.9308C17.1813 27.1172 16.5737 27.7226 16.5737 28.4694C16.5737 29.2161 17.1813 29.8215 17.9308 29.8215H24.0379C26.0055 29.8215 27.3967 28.4354 27.3967 28.4354C28.7879 27.0493 28.7879 25.089 28.7879 25.089C28.7879 23.1288 27.3967 21.7426 27.3967 21.7426C26.0055 20.3565 24.0379 20.3565 24.0379 20.3565H19.9665C19.1233 20.3565 18.5271 19.7625 18.5271 19.7625C17.9308 19.1684 17.9308 18.3283 17.9308 18.3283C17.9308 17.4882 18.527 16.8942 18.527 16.8942C19.1233 16.3001 19.9665 16.3001 19.9665 16.3001Z" fill="#ADAFC4"/>
</svg>
